<svg width="24" height="24" viewBox="0 0 24 24" fill="none" xmlns="http://www.w3.org/2000/svg">
  <path d="M17.29 5.70998C17.1975 5.61728 17.0876 5.54373 16.9666 5.49355C16.8457 5.44337 16.716 5.41754 16.585 5.41754C16.454 5.41754 16.3244 5.44337 16.2034 5.49355C16.0824 5.54373 15.9725 5.61728 15.88 5.70998L12 9.57998L8.11001 5.69998C8.01743 5.6074 7.90752 5.53396 7.78655 5.48385C7.66559 5.43375 7.53594 5.40796 7.40501 5.40796C7.27408 5.40796 7.14443 5.43375 7.02347 5.48385C6.9025 5.53396 6.79259 5.6074 6.70001 5.69998C6.60743 5.79256 6.53399 5.90247 6.48388 6.02344C6.43378 6.1444 6.40799 6.27405 6.40799 6.40498C6.40799 6.53591 6.43378 6.66556 6.48388 6.78652C6.53399 6.90749 6.60743 7.0174 6.70001 7.10998L11.29 11.7C11.68 12.09 12.31 12.09 12.7 11.7L17.29 7.10998C17.3827 7.01846 17.4562 6.90946 17.5064 6.78929C17.5566 6.66913 17.5824 6.5402 17.5824 6.40998C17.5824 6.27975 17.5566 6.15082 17.5064 6.03066C17.4562 5.9105 17.3827 5.8015 17.29 5.70998Z" fill="black" />
  <path d="M17.29 12.2999C17.1975 12.2072 17.0876 12.1337 16.9666 12.0835C16.8456 12.0333 16.716 12.0075 16.585 12.0075C16.454 12.0075 16.3243 12.0333 16.2034 12.0835C16.0824 12.1337 15.9725 12.2072 15.88 12.2999L12 16.1699L8.11999 12.2899C7.93301 12.103 7.67942 11.9979 7.41499 11.9979C7.15056 11.9979 6.89697 12.103 6.70999 12.2899C6.52301 12.4769 6.41797 12.7305 6.41797 12.9949C6.41797 13.2594 6.52301 13.513 6.70999 13.6999L11.3 18.2899C11.69 18.6799 12.32 18.6799 12.71 18.2899L17.3 13.6999C17.4836 13.5126 17.5856 13.2602 17.5837 12.9979C17.5818 12.7356 17.4762 12.4847 17.29 12.2999V12.2999Z" fill="black" />
</svg>