<svg width="50" height="50" viewBox="0 0 237 246" fill="#CD5FF8" xmlns="http://www.w3.org/2000/svg">
  <path fill-rule="evenodd" clip-rule="evenodd"
    d="M117.99 213.438C168.056 213.438 208.642 172.852 208.642 122.787C208.642 72.7215 168.056 32.1356 117.99 32.1356C67.9252 32.1356 27.3392 72.7215 27.3392 122.787C27.3392 172.852 67.9252 213.438 117.99 213.438ZM117.99 221.112C172.294 221.112 216.316 177.09 216.316 122.787C216.316 68.4832 172.294 24.4614 117.99 24.4614C63.6869 24.4614 19.6651 68.4832 19.6651 122.787C19.6651 177.09 63.6869 221.112 117.99 221.112Z"
    fill="black" />
  <path fill-rule="evenodd" clip-rule="evenodd"
    d="M102.393 28.099L104.358 7.67418H132.801L134.726 28.3641C137.434 29.0186 140.082 29.8284 142.659 30.7834L140.078 3.04644C139.917 1.32012 138.469 0 136.735 0H100.437C98.7068 0 97.2602 1.31417 97.0945 3.03596L94.4649 30.3711C97.0429 29.4659 99.6888 28.7053 102.393 28.099Z"
    fill="black" />
  <path fill-rule="evenodd" clip-rule="evenodd"
    d="M134.73 217.082L132.765 237.507H104.322L102.397 216.817C99.6893 216.162 97.0418 215.352 94.4649 214.397L97.0454 242.134C97.206 243.861 98.6547 245.181 100.388 245.181H136.687C138.417 245.181 139.863 243.867 140.029 242.145L142.659 214.81C140.081 215.715 137.435 216.475 134.73 217.082Z"
    fill="black" />
  <path fill-rule="evenodd" clip-rule="evenodd"
    d="M192.378 61.2049L211.049 52.6941L225.27 77.3267L208.315 89.3387C209.102 92.0112 209.724 94.7088 210.186 97.418L232.916 81.3148C234.331 80.3125 234.75 78.3979 233.883 76.8964L215.734 45.461C214.869 43.963 213.008 43.3673 211.434 44.0847L186.446 55.475C188.519 57.2549 190.501 59.1661 192.378 61.2049Z"
    fill="black" />
  <path fill-rule="evenodd" clip-rule="evenodd"
    d="M44.4672 183.941L25.7963 192.452L11.5747 167.819L28.5303 155.807C27.743 153.135 27.1206 150.437 26.6592 147.728L3.92855 163.831C2.51381 164.833 2.09488 166.748 2.96176 168.25L21.111 199.685C21.9759 201.183 23.8373 201.779 25.4112 201.061L50.399 189.671C48.3261 187.891 46.3444 185.98 44.4672 183.941Z"
    fill="black" />
  <path fill-rule="evenodd" clip-rule="evenodd"
    d="M28.2985 89.2099L11.5925 77.2959L25.8142 52.6632L44.6947 61.3412C46.6155 59.3232 48.6405 57.4353 50.756 55.6812L25.4448 44.0475C23.8695 43.3234 22.0019 43.9179 21.135 45.4194L2.98581 76.8548C2.12095 78.3528 2.53572 80.2627 3.94402 81.267L26.3022 97.2119C26.8072 94.5268 27.4715 91.855 28.2985 89.2099Z"
    fill="black" />
  <path fill-rule="evenodd" clip-rule="evenodd"
    d="M208.546 155.936L225.252 167.85L211.031 192.483L192.15 183.805C190.229 185.823 188.204 187.711 186.089 189.465L211.4 201.099C212.975 201.823 214.843 201.228 215.71 199.727L233.859 168.291C234.724 166.793 234.309 164.883 232.901 163.879L210.543 147.934C210.038 150.619 209.373 153.291 208.546 155.936Z"
    fill="black" />
  <path fill-rule="evenodd" clip-rule="evenodd"
    d="M180.343 122.787C180.343 156.958 152.642 184.66 118.47 184.66C110.966 184.66 103.775 183.324 97.1199 180.878C95.2788 180.201 93.1849 180.882 92.2041 182.581V182.581C91.0593 184.563 91.8783 187.11 94.0218 187.915C101.627 190.772 109.866 192.334 118.47 192.334C156.88 192.334 188.017 161.197 188.017 122.787C188.017 84.377 156.88 53.2396 118.47 53.2396C80.0602 53.2396 48.9229 84.377 48.9229 122.787C48.9229 142.52 57.1411 160.333 70.3417 172.991C72.0829 174.661 74.8889 174.164 76.0951 172.075V172.075C77.0205 170.472 76.6754 168.448 75.3483 167.158C63.7824 155.916 56.5971 140.19 56.5971 122.787C56.5971 88.6153 84.2986 60.9138 118.47 60.9138C152.642 60.9138 180.343 88.6153 180.343 122.787Z"
    fill="black" />
  <path fill-rule="evenodd" clip-rule="evenodd"
    d="M180.823 122.787C180.823 157.223 152.907 185.14 118.47 185.14C110.909 185.14 103.661 183.794 96.9544 181.328C95.3168 180.726 93.4755 181.338 92.6195 182.82C91.6123 184.565 92.3437 186.773 94.1904 187.466C101.743 190.303 109.925 191.854 118.47 191.854C156.615 191.854 187.538 160.932 187.538 122.787C187.538 84.6419 156.615 53.7193 118.47 53.7193C80.3251 53.7193 49.4025 84.6419 49.4025 122.787C49.4025 142.384 57.5635 160.074 70.6736 172.645C72.1737 174.084 74.6175 173.675 75.6797 171.835C76.488 170.435 76.1942 168.649 75.014 167.502C63.359 156.173 56.1174 140.325 56.1174 122.787C56.1174 88.3504 84.0337 60.4342 118.47 60.4342C152.907 60.4342 180.823 88.3504 180.823 122.787ZM118.47 184.66C152.642 184.66 180.343 156.958 180.343 122.787C180.343 88.6153 152.642 60.9138 118.47 60.9138C84.2986 60.9138 56.5971 88.6153 56.5971 122.787C56.5971 140.19 63.7824 155.916 75.3483 167.158C76.6754 168.448 77.0205 170.472 76.0951 172.075C74.8889 174.164 72.0829 174.661 70.3417 172.991C57.1411 160.333 48.9229 142.52 48.9229 122.787C48.9229 84.377 80.0602 53.2396 118.47 53.2396C156.88 53.2396 188.017 84.377 188.017 122.787C188.017 161.197 156.88 192.334 118.47 192.334C109.866 192.334 101.627 190.772 94.0218 187.915C91.8783 187.11 91.0593 184.563 92.2041 182.581C93.1849 180.882 95.2788 180.201 97.1199 180.878C103.775 183.324 110.966 184.66 118.47 184.66Z"
    fill="black" />
  <path fill-rule="evenodd" clip-rule="evenodd"
    d="M130.566 101.5C132.397 102.567 133.016 104.916 131.948 106.747L111.537 141.76C110.47 143.591 108.12 144.21 106.289 143.143C104.459 142.076 103.84 139.726 104.907 137.896L125.318 102.882C126.386 101.051 128.735 100.432 130.566 101.5Z"
    fill="black" />
  <path fill-rule="evenodd" clip-rule="evenodd"
    d="M95.7627 106.315C97.2611 107.813 97.2611 110.243 95.7627 111.741L82.4833 125.02C80.9848 126.519 78.5553 126.519 77.0568 125.02C75.5584 123.522 75.5584 121.092 77.0568 119.594L90.3362 106.315C91.8347 104.816 94.2642 104.816 95.7627 106.315Z"
    fill="black" />
  <path fill-rule="evenodd" clip-rule="evenodd"
    d="M77.386 120.074C78.8845 118.575 81.314 118.575 82.8125 120.074L95.3612 132.622C96.8596 134.121 96.8596 136.55 95.3612 138.049C93.8627 139.547 91.4332 139.547 89.9347 138.049L77.386 125.5C75.8875 124.002 75.8875 121.572 77.386 120.074Z"
    fill="black" />
  <path fill-rule="evenodd" clip-rule="evenodd"
    d="M140.698 138.049C139.199 136.55 139.199 134.121 140.698 132.622L153.977 119.343C155.476 117.845 157.905 117.845 159.404 119.343C160.902 120.841 160.902 123.271 159.404 124.769L146.124 138.049C144.626 139.547 142.196 139.547 140.698 138.049Z"
    fill="black" />
  <path fill-rule="evenodd" clip-rule="evenodd"
    d="M159.075 124.29C157.576 125.788 155.147 125.788 153.648 124.29L141.099 111.741C139.601 110.243 139.601 107.813 141.099 106.315C142.598 104.816 145.027 104.816 146.526 106.315L159.075 118.863C160.573 120.362 160.573 122.791 159.075 124.29Z"
    fill="black" />
</svg>