<svg width="24" height="24" viewBox="0 0 24 24" fill="none" xmlns="http://www.w3.org/2000/svg">
<path d="M4.70475 0.00146484C2.11806 0.00146484 0.00149536 2.11803 0.00149536 4.70472V19.3012C0.00149536 21.8879 2.11806 24.0045 4.70475 24.0045H19.3013C21.888 24.0045 24.0045 21.8879 24.0045 19.3012V4.70472C24.0045 2.11803 21.888 0.00146484 19.3013 0.00146484H4.70475V0.00146484ZM7.39726 5.41721H12.132C13.1153 5.41721 13.8623 5.45319 14.3693 5.53047C14.8763 5.60388 15.3525 5.76125 15.795 6.00072C16.2739 6.2587 16.6336 6.6061 16.8705 7.03646C17.1074 7.46938 17.2275 7.96697 17.2275 8.53272C17.2275 9.18658 17.0644 9.76779 16.7355 10.278C16.4098 10.7882 15.9579 11.1633 15.3833 11.406V11.4757C16.2102 11.6513 16.8734 12.0046 17.3708 12.5422C17.8689 13.0805 18.1178 13.8051 18.1178 14.715C18.1178 15.381 17.992 15.9684 17.7398 16.4722C17.4876 16.976 17.1499 17.3912 16.7228 17.7232C16.219 18.1191 15.666 18.3985 15.06 18.5677C14.4579 18.7363 13.693 18.8205 12.762 18.8205H7.39729V5.41723L7.39726 5.41721ZM10.746 7.87421V10.7107H11.1698C11.7444 10.7107 12.1505 10.7048 12.381 10.6927C12.6115 10.6806 12.8514 10.6189 13.0973 10.5052C13.3642 10.3794 13.5521 10.2048 13.653 9.98321C13.7545 9.75907 13.8068 9.50026 13.8068 9.20846C13.8068 8.99074 13.7514 8.76903 13.6402 8.54172C13.5298 8.31439 13.3581 8.14824 13.1212 8.04672C12.9003 7.94839 12.6391 7.89655 12.3345 7.88698C12.0306 7.87738 11.5789 7.87423 10.98 7.87423H10.746L10.746 7.87421ZM10.746 13.0065V16.362H10.9275C11.8036 16.362 12.4087 16.3554 12.7433 16.3432C13.0778 16.3311 13.4225 16.2517 13.7693 16.101C14.077 15.9688 14.298 15.7751 14.4398 15.5197C14.5809 15.2649 14.6513 14.9759 14.6513 14.6535C14.6513 14.2384 14.5693 13.9159 14.4 13.6822C14.2315 13.446 13.9793 13.2705 13.644 13.1505C13.441 13.0706 13.1581 13.0274 12.8018 13.0185C12.4455 13.0095 11.9666 13.0065 11.367 13.0065H10.746H10.746Z" fill="black"/>
</svg>
