<svg width="17" height="16" viewBox="0 0 17 16" fill="none" xmlns="http://www.w3.org/2000/svg">
  <path d="M15.8 3.7C13.4 -2.38419e-07 8.49999 -1.1 4.69999 1.2C0.999993 3.5 -0.200007 8.5 2.19999 12.2L2.39999 12.5L1.59999 15.5L4.59999 14.7L4.89999 14.9C6.19999 15.6 7.59999 16 8.99999 16C10.5 16 12 15.6 13.3 14.8C17 12.4 18.1 7.5 15.8 3.7V3.7ZM13.7 11.4C13.3 12 12.8 12.4 12.1 12.5C11.7 12.5 11.2 12.7 9.19999 11.9C7.49999 11.1 6.09999 9.8 5.09999 8.3C4.49999 7.6 4.19999 6.7 4.09999 5.8C4.09999 5 4.39999 4.3 4.89999 3.8C5.09999 3.6 5.29999 3.5 5.49999 3.5H5.99999C6.19999 3.5 6.39999 3.5 6.49999 3.9C6.69999 4.4 7.19999 5.6 7.19999 5.7C7.29999 5.8 7.29999 6 7.19999 6.1C7.29999 6.3 7.19999 6.5 7.09999 6.6C6.99999 6.7 6.89999 6.9 6.79999 7C6.59999 7.1 6.49999 7.3 6.59999 7.5C6.99999 8.1 7.49999 8.7 7.99999 9.2C8.59999 9.7 9.19999 10.1 9.89999 10.4C10.1 10.5 10.3 10.5 10.4 10.3C10.5 10.1 11 9.6 11.2 9.4C11.4 9.2 11.5 9.2 11.7 9.3L13.3 10.1C13.5 10.2 13.7 10.3 13.8 10.4C13.9 10.7 13.9 11.1 13.7 11.4V11.4Z" fill="black" />
</svg>