<svg width="72" height="72" viewBox="0 0 72 72" fill="none" xmlns="http://www.w3.org/2000/svg">
<g clip-path="url(#clip0_506_2140)">
<path d="M35.874 1.8555e-05L36.267 -0.00298145C42.804 -0.00298145 48.924 1.78802 54.162 4.90802L54 4.81802C60.0154 8.25535 64.8946 13.3764 68.037 19.551L68.13 19.752L38.325 18.192C34.1371 17.9104 29.9691 18.9787 26.433 21.24L26.511 21.192C23.0657 23.277 20.4493 26.4913 19.107 30.288L19.071 30.408L7.98299 13.368C11.2949 9.23077 15.4958 5.89223 20.274 3.60002L20.484 3.51002C25.2812 1.19882 30.5371 -0.00287719 35.862 -0.00598145H35.868L35.874 1.8555e-05ZM5.86499 16.269L19.404 42.909C21.2244 46.5987 24.1516 49.6277 27.777 51.573L27.882 51.624C30.4471 53.0367 33.3297 53.7728 36.258 53.763C37.455 53.763 38.625 53.643 39.753 53.412L39.642 53.43L30.402 71.547C24.851 70.6798 19.5802 68.5249 15.0115 65.2549C10.4428 61.9849 6.70314 57.6907 4.09199 52.716L3.99899 52.518C1.35662 47.484 -0.0151918 41.8804 0.00298594 36.195V35.781C0.00298594 28.512 2.19299 21.759 5.94899 16.137L5.86799 16.266L5.86499 16.269ZM69.576 23.058C71.1387 27.0292 71.9525 31.2555 71.976 35.523V35.538L71.979 36.054C71.979 40.269 71.265 44.319 69.948 48.087L70.026 47.832C68.6309 51.8334 66.533 55.5537 63.831 58.818L63.879 58.758C61.1626 62.0858 57.8741 64.902 54.168 67.074L54 67.167C48.5806 70.3572 42.4027 72.0307 36.114 72.012C35.37 72.012 34.629 71.988 33.897 71.943L33.999 71.949L50.268 46.923C52.622 43.4869 53.7853 39.3741 53.58 35.214L53.583 35.256C53.5077 31.1434 51.9856 27.1888 49.284 24.087L49.302 24.108L69.576 23.058ZM36 23.862C39.2171 23.8636 42.302 25.1423 44.5768 27.4172C46.8517 29.692 48.1304 32.7769 48.132 35.994C48.1304 39.2111 46.8517 42.296 44.5768 44.5709C42.302 46.8457 39.2171 48.1244 36 48.126C32.7829 48.1244 29.698 46.8457 27.4231 44.5709C25.1483 42.296 23.8696 39.2111 23.868 35.994C23.8696 32.7769 25.1483 29.692 27.4231 27.4172C29.698 25.1423 32.7829 23.8636 36 23.862V23.862Z" fill="white"/>
</g>
<defs>
<clipPath id="clip0_506_2140">
<rect width="72" height="72" fill="white"/>
</clipPath>
</defs>
</svg>
