<svg width="48" height="72" viewBox="0 0 48 72" fill="none" xmlns="http://www.w3.org/2000/svg">
<g clip-path="url(#clip0_506_2132)">
<path d="M11.7177 0H23.3845V23.3339H11.7178C-3.66799 22.7325 -3.82338 0.631688 11.7177 0ZM11.7177 47.6658H23.3845V24.3319H11.7178C-3.82324 24.9636 -3.66785 47.0644 11.7178 47.6658H11.7177ZM36.0496 0H24.3825V23.3339H36.0496C51.6424 22.4994 51.448 0.476297 36.0496 0ZM23.3845 60.3309V48.6638H11.7178C2.1972 48.6638 -3.82324 59.8261 2.79809 67.8434C9.11103 75.79 23.3846 71.8282 23.3846 60.3309H23.3845ZM47.7403 35.9989C47.7403 27.0326 37.9671 21.3985 30.191 25.8816C22.4149 30.3647 22.4147 41.6332 30.191 46.1163C37.9673 50.5994 47.7403 44.9651 47.7403 35.9989Z" fill="white"/>
</g>
<defs>
<clipPath id="clip0_506_2132">
<rect width="47.82" height="72" fill="white"/>
</clipPath>
</defs>
</svg>
