<svg width="80" height="80" viewBox="0 0 80 80" fill="none" xmlns="http://www.w3.org/2000/svg">
<path d="M72.34 5.24999H5.115C4.50541 5.25132 3.92116 5.49406 3.49012 5.92511C3.05907 6.35616 2.81632 6.9404 2.815 7.54999V60.29C2.815 61.555 3.85 62.59 5.115 62.59H47.77V62.58H72.34C73.605 62.58 74.64 61.5475 74.64 60.28V7.54499C74.6367 6.93601 74.3933 6.3529 73.9627 5.92228C73.5321 5.49165 72.949 5.24828 72.34 5.245V5.24999ZM71.405 50.155C71.405 51.185 70.56 52.03 69.53 52.03H7.655C7.15813 52.0287 6.68198 51.8307 6.33063 51.4794C5.97929 51.128 5.78132 50.6519 5.78 50.155V10.155C5.78 9.12249 6.6225 8.28 7.655 8.28H69.53C70.56 8.28 71.405 9.12249 71.405 10.155V50.155ZM51.295 71C51.2125 70.9125 51.14 70.8625 51.125 70.845L51.1 70.835L51.08 70.825C51.08 70.825 50.965 70.775 50.78 70.67C50.5125 70.53 50.075 70.31 49.67 70.0775C49.3212 69.8852 48.9921 69.6591 48.6875 69.4025C48.6256 69.2658 48.5771 69.1235 48.5425 68.9775C48.335 68.1775 48.1425 66.6025 47.9925 65.1275H29.2425C29.185 65.7025 29.1225 66.2975 29.0525 66.8575C28.9819 67.4575 28.8885 68.0546 28.7725 68.6475C28.7241 68.8963 28.6547 69.1405 28.565 69.3775L28.5475 69.41C28.3125 69.65 27.6975 70.025 27.165 70.31C26.8975 70.465 26.64 70.585 26.4575 70.675L26.1575 70.825L26.1425 70.8375L26.1225 70.8475C26.0975 70.8675 26.0275 70.8975 25.9475 70.9975C25.8418 71.1297 25.7828 71.2932 25.78 71.4625C25.7875 71.4675 25.7725 71.555 25.7675 71.6825C25.7675 71.79 25.785 71.9775 25.9375 72.145C26.0875 72.295 26.295 72.345 26.48 72.345H50.77C50.9681 72.349 51.1602 72.2775 51.3075 72.145C51.4251 72.0193 51.488 71.8521 51.4825 71.68C51.4775 71.555 51.4575 71.465 51.4625 71.46C51.4618 71.2916 51.4056 71.1282 51.3025 70.995L51.295 71Z" fill="white"/>
<g clip-path="url(#clip0_505_2131)">
<path d="M48.6117 2.24663C48.5078 2.13052 44.7647 2.29247 41.5075 5.82774C38.2503 9.35997 38.7514 13.4116 38.8247 13.5155C38.8981 13.6194 43.4692 13.7814 46.3872 9.67163C49.3053 5.56191 48.7156 2.3658 48.6117 2.24663V2.24663ZM58.7378 38.0975C58.5911 37.8041 51.6336 34.3269 52.2814 27.6414C52.9292 20.9527 57.3995 19.1194 57.4697 18.9208C57.54 18.7222 55.6456 16.5069 53.6381 15.3855C52.1641 14.5949 50.5328 14.1419 48.8622 14.0594C48.5322 14.0502 47.3864 13.7691 45.0306 14.4139C43.4783 14.8386 39.9797 16.2136 39.0172 16.2686C38.0517 16.3236 35.1795 14.6736 32.0903 14.2366C30.1133 13.8547 28.0172 14.6369 26.517 15.2389C25.0197 15.8377 22.172 17.5427 20.1797 22.0741C18.1875 26.6025 19.2295 33.7769 19.975 36.0075C20.7206 38.235 21.8847 41.8864 23.8647 44.5508C25.6247 47.5575 27.9592 49.6444 28.9339 50.3533C29.9086 51.0622 32.6586 51.5327 34.5653 50.558C36.0992 49.6169 38.8675 49.0761 39.9614 49.1158C41.0522 49.1555 43.2033 49.5864 45.4064 50.7627C47.1511 51.3647 48.8011 51.1141 50.4542 50.4419C52.1072 49.7666 54.4997 47.2061 57.2925 42.0147C58.3528 39.6008 58.8356 38.2961 58.7378 38.0975V38.0975Z" fill="white"/>
<path d="M48.6117 2.24663C48.5078 2.13052 44.7647 2.29247 41.5075 5.82774C38.2503 9.35997 38.7514 13.4116 38.8247 13.5155C38.8981 13.6194 43.4692 13.7814 46.3872 9.67163C49.3053 5.56191 48.7156 2.3658 48.6117 2.24663V2.24663ZM58.7378 38.0975C58.5911 37.8041 51.6336 34.3269 52.2814 27.6414C52.9292 20.9527 57.3995 19.1194 57.4697 18.9208C57.54 18.7222 55.6456 16.5069 53.6381 15.3855C52.1641 14.5949 50.5328 14.1419 48.8622 14.0594C48.5322 14.0502 47.3864 13.7691 45.0306 14.4139C43.4783 14.8386 39.9797 16.2136 39.0172 16.2686C38.0517 16.3236 35.1795 14.6736 32.0903 14.2366C30.1133 13.8547 28.0172 14.6369 26.517 15.2389C25.0197 15.8377 22.172 17.5427 20.1797 22.0741C18.1875 26.6025 19.2295 33.7769 19.975 36.0075C20.7206 38.235 21.8847 41.8864 23.8647 44.5508C25.6247 47.5575 27.9592 49.6444 28.9339 50.3533C29.9086 51.0622 32.6586 51.5327 34.5653 50.558C36.0992 49.6169 38.8675 49.0761 39.9614 49.1158C41.0522 49.1555 43.2033 49.5864 45.4064 50.7627C47.1511 51.3647 48.8011 51.1141 50.4542 50.4419C52.1072 49.7666 54.4997 47.2061 57.2925 42.0147C58.3528 39.6008 58.8356 38.2961 58.7378 38.0975V38.0975Z" fill="white"/>
</g>
<defs>
<clipPath id="clip0_505_2131">
<rect width="48.8889" height="48.8889" fill="white" transform="translate(14.4445 2.22217)"/>
</clipPath>
</defs>
</svg>
