<svg width="72" height="72" viewBox="0 0 72 72" fill="none" xmlns="http://www.w3.org/2000/svg">
<g clip-path="url(#clip0_505_2121)">
<path d="M0.683984 25.11C0.683984 25.11 -1.06802 23.829 1.03498 22.125L5.93998 17.691C5.93998 17.691 7.34098 16.2 8.82598 17.499L54.069 52.125V68.727C54.069 68.727 54.048 71.337 50.739 71.049L0.680984 25.107L0.683984 25.11Z" fill="white"/>
<path d="M12.348 35.811L0.683968 46.527C0.683968 46.527 -0.516032 47.427 0.683968 49.038L6.09897 54.018C6.09897 54.018 7.38597 55.413 9.28497 53.823L21.648 44.349L12.348 35.811ZM32.82 35.898L54.21 19.392L54.069 2.87697C54.069 2.87697 53.154 -0.72903 50.109 1.14897L21.648 27.33L32.82 35.898V35.898Z" fill="white"/>
<path d="M50.736 71.07C51.978 72.354 53.484 71.934 53.484 71.934L70.152 63.633C72.285 62.163 71.985 60.339 71.985 60.339V10.764C71.985 8.58602 69.78 7.83302 69.78 7.83302L55.332 0.792023C52.176 -1.17898 50.109 1.14902 50.109 1.14902C50.109 1.14902 52.767 -0.785977 54.069 2.87702V68.427C54.069 68.877 53.973 69.318 53.784 69.717C53.403 70.494 52.578 71.217 50.598 70.917L50.736 71.07V71.07Z" fill="white"/>
</g>
<defs>
<clipPath id="clip0_505_2121">
<rect width="72" height="72" fill="white"/>
</clipPath>
</defs>
</svg>
