<svg width="72" height="72" viewBox="0 0 72 72" fill="none" xmlns="http://www.w3.org/2000/svg">
<path d="M22.779 54H38.4165C46.5345 54 51.4125 49.914 51.4125 43.218C51.4125 38.259 47.988 34.596 42.8445 34.065V33.615C46.5885 32.985 49.5135 29.43 49.5135 25.443C49.5135 19.593 45.216 15.948 38.0745 15.948H22.779V54ZM28.6875 32.0625V20.961H36.6975C41.076 20.961 43.6365 23.0175 43.6365 26.5275C43.6365 30.1365 40.9185 32.0625 35.6985 32.0625H28.6875ZM28.6875 48.9915V36.729H36.8865C42.4485 36.729 45.378 38.8125 45.378 42.795C45.378 46.827 42.5565 48.9915 37.2285 48.9915H28.6875V48.9915Z" fill="white"/>
<path d="M0 18C0 13.2261 1.89642 8.64773 5.27208 5.27208C8.64773 1.89642 13.2261 0 18 0L54 0C58.7739 0 63.3523 1.89642 66.7279 5.27208C70.1036 8.64773 72 13.2261 72 18V54C72 58.7739 70.1036 63.3523 66.7279 66.7279C63.3523 70.1036 58.7739 72 54 72H18C13.2261 72 8.64773 70.1036 5.27208 66.7279C1.89642 63.3523 0 58.7739 0 54V18ZM18 4.5C14.4196 4.5 10.9858 5.92232 8.45406 8.45406C5.92232 10.9858 4.5 14.4196 4.5 18V54C4.5 57.5804 5.92232 61.0142 8.45406 63.5459C10.9858 66.0777 14.4196 67.5 18 67.5H54C57.5804 67.5 61.0142 66.0777 63.5459 63.5459C66.0777 61.0142 67.5 57.5804 67.5 54V18C67.5 14.4196 66.0777 10.9858 63.5459 8.45406C61.0142 5.92232 57.5804 4.5 54 4.5H18Z" fill="white"/>
</svg>
