<svg width="72" height="72" viewBox="0 0 72 72" fill="none" xmlns="http://www.w3.org/2000/svg">
<g clip-path="url(#clip0_502_2101)">
<path fill-rule="evenodd" clip-rule="evenodd" d="M63 20.25V63C63 65.3869 62.0518 67.6761 60.364 69.364C58.6761 71.0518 56.3869 72 54 72H49.5V67.5H54C55.1935 67.5 56.3381 67.0259 57.182 66.182C58.0259 65.3381 58.5 64.1935 58.5 63V20.25H49.5C47.7098 20.25 45.9929 19.5388 44.727 18.273C43.4612 17.0071 42.75 15.2902 42.75 13.5V4.5H18C16.8065 4.5 15.6619 4.97411 14.818 5.81802C13.9741 6.66193 13.5 7.80653 13.5 9V49.5H9V9C9 6.61305 9.94821 4.32387 11.636 2.63604C13.3239 0.948212 15.6131 0 18 0L42.75 0L63 20.25ZM15.2865 66.7845C15.3123 67.4935 15.4861 68.1894 15.7969 68.8272C16.1077 69.465 16.5485 70.0307 17.091 70.488C17.676 70.974 18.3915 71.352 19.242 71.622C20.097 71.8965 21.0915 72.0315 22.2345 72.0315C23.7555 72.0315 25.0425 71.793 26.1 71.3205C27.162 70.848 27.972 70.1865 28.5255 69.3405C29.088 68.49 29.367 67.5045 29.367 66.3885C29.367 65.3805 29.1645 64.5435 28.764 63.8685C28.3521 63.1943 27.7702 62.6402 27.0765 62.262C26.2794 61.8216 25.4209 61.5031 24.5295 61.317L21.735 60.669C21.0763 60.548 20.4542 60.277 19.917 59.877C19.7117 59.7187 19.5462 59.5146 19.4337 59.281C19.3212 59.0474 19.2648 58.7907 19.269 58.5315C19.269 57.8295 19.548 57.2535 20.1015 56.8035C20.664 56.349 21.4335 56.1195 22.4055 56.1195C23.049 56.1195 23.6025 56.223 24.0705 56.4255C24.5013 56.6011 24.8817 56.881 25.1775 57.24C25.4545 57.5741 25.6405 57.974 25.7175 58.401H29.0925C29.0363 57.4846 28.7245 56.6023 28.1925 55.854C27.6238 55.0463 26.846 54.4085 25.9425 54.009C24.8375 53.5242 23.6387 53.2906 22.4325 53.325C21.114 53.325 19.953 53.55 18.9405 54C17.928 54.4455 17.1405 55.08 16.569 55.8945C15.9975 56.7135 15.714 57.672 15.714 58.77C15.714 59.6745 15.894 60.462 16.263 61.128C16.632 61.7985 17.163 62.343 17.847 62.7795C18.531 63.207 19.341 63.531 20.2725 63.738L23.0535 64.386C23.985 64.6065 24.678 64.8945 25.137 65.2545C25.3612 65.4254 25.5406 65.6482 25.6598 65.9037C25.7789 66.1592 25.8343 66.4399 25.821 66.7215C25.8297 67.1853 25.6962 67.6407 25.4385 68.0265C25.1487 68.4216 24.7499 68.7234 24.291 68.895C23.7915 69.1065 23.1705 69.21 22.4325 69.21C21.906 69.21 21.429 69.1515 20.9925 69.03C20.5947 68.9197 20.2177 68.7449 19.8765 68.5125C19.5769 68.3186 19.3204 68.0651 19.123 67.7678C18.9256 67.4706 18.7915 67.1358 18.729 66.7845H15.2865V66.7845ZM3.627 61.6185C3.627 60.5025 3.78 59.5485 4.086 58.77C4.35292 58.0511 4.82556 57.4266 5.445 56.9745C6.07636 56.5524 6.82332 56.3369 7.5825 56.358C8.2575 56.358 8.856 56.502 9.3735 56.7945C9.88064 57.0655 10.3039 57.4701 10.5975 57.9645C10.9111 58.485 11.0962 59.0727 11.1375 59.679H14.58V59.355C14.5501 58.5261 14.3483 57.7124 13.9873 56.9657C13.6263 56.2189 13.1141 55.5553 12.483 55.017C11.8365 54.4691 11.0889 54.0533 10.2825 53.793C9.40439 53.4957 8.48254 53.3481 7.5555 53.3565C5.9535 53.3565 4.5855 53.6895 3.456 54.36C2.331 55.026 1.476 55.9755 0.882 57.204C0.297 58.437 0 59.904 0 61.6095V63.8505C0 65.556 0.288 67.0185 0.8685 68.2425C1.458 69.462 2.3175 70.4025 3.4425 71.0595C4.5675 71.712 5.9355 72.036 7.5555 72.036C8.874 72.036 10.0485 71.7885 11.088 71.298C12.123 70.803 12.951 70.128 13.563 69.255C14.1838 68.3614 14.5366 67.3092 14.58 66.222V65.88H11.142C11.0996 66.4594 10.9174 67.0199 10.611 67.5135C10.3111 67.9913 9.88838 68.3799 9.387 68.6385C8.82509 68.9104 8.20654 69.0445 7.5825 69.03C6.82223 69.0516 6.07296 68.8447 5.4315 68.436C4.81528 67.9972 4.34623 67.3823 4.086 66.672C3.75697 65.7687 3.60125 64.8115 3.627 63.8505V61.623V61.6185ZM30.51 68.805C30.2114 68.1712 30.0416 67.4844 30.0105 66.7845H33.4485C33.511 67.1358 33.6451 67.4706 33.8425 67.7678C34.0399 68.0651 34.2964 68.3186 34.596 68.5125C34.911 68.733 35.289 68.904 35.721 69.0255C36.1485 69.1515 36.6255 69.21 37.1565 69.21C37.8945 69.21 38.511 69.1065 39.015 68.895C39.4739 68.7234 39.8727 68.4216 40.1625 68.0265C40.4197 67.6405 40.5531 67.1853 40.545 66.7215C40.5577 66.4395 40.5017 66.1586 40.3818 65.903C40.2618 65.6475 40.0816 65.4249 39.8565 65.2545C39.402 64.8945 38.7045 64.6065 37.773 64.386L34.992 63.7425C34.1348 63.5611 33.3147 63.2355 32.5665 62.7795C31.9067 62.3741 31.3626 61.8052 30.987 61.128C30.6042 60.4021 30.4137 59.5904 30.4335 58.77C30.4335 57.672 30.717 56.7135 31.2885 55.8945C31.86 55.08 32.652 54.4455 33.66 53.9955C34.6725 53.5455 35.838 53.325 37.1565 53.325C38.5245 53.325 39.6945 53.55 40.662 54.009C41.6385 54.468 42.39 55.0845 42.912 55.854C43.452 56.619 43.7535 57.4695 43.812 58.401H40.437C40.36 57.974 40.174 57.5741 39.897 57.24C39.6012 56.881 39.2208 56.6011 38.79 56.4255C38.2619 56.2103 37.6951 56.1061 37.125 56.1195C36.153 56.1195 35.3835 56.3445 34.821 56.8035C34.5572 57.0065 34.3449 57.2687 34.2011 57.5688C34.0572 57.869 33.986 58.1987 33.993 58.5315C33.993 59.076 34.2045 59.5215 34.6365 59.8815C35.1741 60.2799 35.7961 60.5493 36.4545 60.669L39.249 61.3125C40.2255 61.5375 41.076 61.8525 41.796 62.262C42.516 62.667 43.0785 63.207 43.4835 63.873C43.8885 64.539 44.091 65.3805 44.091 66.393C44.091 67.5045 43.8075 68.49 43.245 69.345C42.646 70.2255 41.803 70.9121 40.8195 71.3205C39.7665 71.793 38.4795 72.0315 36.9585 72.0315C35.8155 72.0315 34.8165 71.8965 33.966 71.6265C33.1823 71.3913 32.4518 71.0062 31.815 70.4925C31.2656 70.0286 30.8208 69.4534 30.51 68.805V68.805Z" fill="white"/>
</g>
<defs>
<clipPath id="clip0_502_2101">
<rect width="72" height="72" fill="white"/>
</clipPath>
</defs>
</svg>
