<svg width="36" height="72" viewBox="0 0 36 72" fill="none" xmlns="http://www.w3.org/2000/svg">
<path d="M29.5031 54.9985L27.5203 58.4579L26.8734 69.736C26.8734 70.9875 22.8937 72 18 72C13.1062 72 9.12655 70.9875 9.12655 69.736L8.31093 58.5704L6.21561 54.9985C12.0094 57.4313 23.9344 57.3469 29.5031 54.9985V54.9985ZM1.94061 19.3782L3.85311 37.0266C4.6828 34.2141 6.77811 30.4172 9.47811 29.2641C10.3641 28.8844 11.264 28.8844 12.1078 29.3907C12.839 29.8125 13.4578 30.6985 13.5281 31.05C13.6969 31.9641 13.2469 32.3297 12.8953 32.3297C12.4734 32.3297 12.15 31.6829 11.9391 31.3032C11.3625 30.2766 10.4906 30.2344 9.56249 30.9094C8.59218 31.6125 7.74843 32.7938 7.1578 33.8204C6.44061 35.0579 5.83593 36.4219 5.4703 37.786C5.25936 38.5735 5.06249 39.8391 5.38593 40.5844C5.52655 40.8938 5.73749 41.0907 6.07499 41.0907C6.77811 41.0907 7.80468 40.1625 8.29686 39.6704C8.92968 39.0375 9.7453 38.0532 10.0547 37.4204L10.7859 35.2407C11.1515 34.2844 12.1781 34.4532 12.1781 35.2407C12.1781 36.675 11.6578 37.1532 10.7719 40.1204C9.95624 42.8625 9.70311 43.7485 9.70311 43.7485C9.60468 44.1422 9.22499 44.8032 8.81718 44.8032C8.64843 44.8032 8.52186 44.7469 8.45155 44.6344C8.31093 44.4375 8.32499 43.8891 8.33905 43.7485C8.36718 43.2985 9.22499 40.6266 9.36561 40.2047C9.08436 40.5141 8.78905 40.8235 8.46561 41.1329C7.70624 41.85 6.4828 42.7922 5.44218 42.7922C4.96405 42.7922 4.65468 42.6657 4.35936 42.4547L5.42811 53.6485C5.70936 54.3516 10.9406 56.0532 17.8312 56.0532C24.7359 56.0532 29.9672 54.3375 30.2344 53.6485L31.7672 40.3454C30.9656 41.0766 30.0375 41.9766 29.0109 42.4266C28.2516 42.75 26.564 42.961 26.564 41.625C26.564 40.8938 27.8437 39.5438 28.5891 38.6016C28.7859 38.3625 29.25 37.7719 29.25 37.4625C29.25 37.0547 28.4062 37.1532 27.6047 37.8141C27.1547 38.1938 26.7328 38.7 26.3812 39.1782C25.7766 40.0219 25.4531 40.7532 25.1859 41.3579C24.3141 43.3547 24.6094 42.5672 23.9062 44.4516C23.2031 46.3219 23.3156 46.111 23.175 46.4204C23.0484 46.6875 22.8656 46.9125 22.6125 47.0532C22.3453 47.1938 21.9797 47.1797 21.7547 47.011C21.6281 46.9266 21.5719 46.7438 21.5719 46.4907C21.5719 46.3641 21.5859 46.2375 21.614 46.111C21.825 45.2532 22.7109 43.5657 23.7234 41.2875C23.9484 40.7672 23.864 40.9219 23.8359 40.9641C22.964 41.8079 22.3031 42.2157 21.8109 42.4407C20.9953 42.8063 19.9828 42.8063 19.7719 41.8641C19.7578 41.8079 19.7578 41.7516 19.7437 41.6954C18.0844 42.9891 16.3266 43.3407 16.9312 40.5563C16.2844 41.7094 15.1594 42.6516 13.7812 42.6516C13.2047 42.6516 12.7828 42.4547 12.5719 41.9344C12.2484 41.161 12.7547 39.8391 13.2187 38.5875C13.4578 37.9547 13.7812 37.1954 14.2172 36.3094C14.4422 35.8313 14.8078 35.55 15.2859 35.6766C15.3703 35.7047 15.4406 35.7329 15.5109 35.775C15.8766 36.0282 15.7359 36.4079 15.5531 36.7875C15.0187 37.8422 14.5547 38.6157 14.2453 39.7125C14.1187 40.1766 13.9641 40.9782 14.4562 40.9782C14.7937 40.9782 15.1172 40.8657 15.4265 40.6407C16.0734 40.1625 16.5937 39.4454 16.9875 38.7422C17.2687 38.236 17.6062 37.575 17.775 37.0125C17.8453 36.7735 17.9297 36.5485 18.0281 36.3375C18.1828 35.986 18.3937 35.6204 18.7594 35.6204C18.9422 35.6204 19.0969 35.6907 19.2094 35.8313C19.4484 36.1407 19.3922 36.4641 19.2656 36.8016C18.9844 37.5891 18.6047 38.2922 18.2953 39.15C18.1125 39.6422 17.9156 40.275 17.9156 40.7954C17.9156 41.2735 18.4359 41.161 18.8719 40.9641C19.2094 40.8094 19.5469 40.5704 19.8281 40.3313C19.9969 39.6422 19.9547 39.7969 23.5406 30.7407C23.7234 30.2766 24.0609 30.0797 24.3984 30.0797C24.5672 30.0797 24.7078 30.136 24.8484 30.2344C25.0875 30.4172 25.0875 30.811 24.989 31.1063C24.8906 31.3735 24.9047 31.2891 24.3562 32.5829C23.625 34.2844 23.1469 35.5079 22.5 37.0688C22.2328 37.7157 21.4172 39.7266 21.2766 40.2047C21.1922 40.5141 21.0937 41.0204 21.4172 41.0204C22.1766 41.0204 24.1312 39.1782 24.6656 38.6297C24.6937 38.5875 24.7359 38.5735 24.7922 38.5454C24.8766 38.2782 24.9609 38.025 25.0312 37.7719C25.2281 37.2375 25.4109 36.6188 25.7766 36.1829C25.8891 36.0422 26.0156 35.9579 26.1562 35.9579C26.55 35.9579 26.7469 36.1266 26.7469 36.5204C26.7469 36.675 26.6484 37.2375 26.5922 37.3922C26.7891 37.1813 27 36.9704 27.225 36.7594C29.3344 34.8047 30.8391 35.8032 30.8391 36.7875C30.8391 37.8282 29.5875 39.2766 28.8984 40.0782C28.6734 40.3454 28.2094 40.8375 28.1953 40.9782C28.1953 41.161 28.3219 41.2313 28.5047 41.2313C28.7859 41.2313 29.4047 40.7391 29.6297 40.5704C30.3328 40.0219 31.2891 39.1782 31.9641 38.5875L34.0453 19.35C29.7562 21.7547 6.2578 21.7688 1.94061 19.3782V19.3782ZM34.2422 18.1829C34.2422 21.136 1.72968 21.136 1.72968 18.1829C1.72968 16.9454 9.01405 15.9469 17.9859 15.9469C19.2516 15.9469 20.489 15.961 21.6844 16.0032L23.4562 9.15474L32.0766 0.0844225C32.2734 -0.112453 32.8922 0.0562974 33.4687 0.57661C34.0453 1.09692 34.3969 1.68755 34.2141 1.88442L34.2 1.89849L26.1422 10.4063L24.7359 16.1297C30.3469 16.4954 34.2422 17.2688 34.2422 18.1829ZM24.4828 18.8297C24.4828 18.7172 24.3562 18.6188 24.1312 18.5344L24.1031 18.6469C24.1031 18.8297 23.4 18.9844 22.5422 18.9844C21.6844 18.9844 20.9812 18.8297 20.9812 18.6469C20.9812 18.6329 20.9812 18.6188 20.9953 18.6047L21.0234 18.5063C20.7703 18.5907 20.6015 18.7032 20.6015 18.8297C20.6015 19.125 21.4734 19.35 22.5281 19.35C23.6109 19.3641 24.4828 19.125 24.4828 18.8297V18.8297Z" fill="white"/>
</svg>
