<svg width="72" height="72" viewBox="0 0 72 72" fill="none" xmlns="http://www.w3.org/2000/svg">
<path fill-rule="evenodd" clip-rule="evenodd" d="M63 20.25V49.5H58.5V20.25H49.5C47.7098 20.25 45.9929 19.5388 44.727 18.273C43.4612 17.0071 42.75 15.2902 42.75 13.5V4.5H18C16.8065 4.5 15.6619 4.97411 14.818 5.81802C13.9741 6.66193 13.5 7.80653 13.5 9V49.5H9V9C9 6.61305 9.94821 4.32387 11.636 2.63604C13.3239 0.948212 15.6131 0 18 0L42.75 0L63 20.25ZM19.188 53.325V71.3205H15.6285V63.6075H8.055V71.3205H4.5V53.325H8.0595V60.642H15.6285V53.325H19.1835H19.188ZM29.3175 56.304V71.3205H25.7445V56.304H20.646V53.325H34.434V56.304H29.3175V56.304ZM39.1095 71.3205V59.3505H39.2805L43.5645 69.066H45.8865L50.1435 59.346H50.3145V71.3205H53.532V53.325H49.932L44.802 65.007H44.685L39.555 53.325H35.9325V71.3205H39.1095ZM60.3045 68.2875H67.9365V71.3205H56.745V53.325H60.3V68.2875H60.3045Z" fill="white"/>
</svg>
