<svg width="72" height="72" viewBox="0 0 72 72" fill="none" xmlns="http://www.w3.org/2000/svg">
<g clip-path="url(#clip0_502_2103)">
<path d="M39.903 16.803C38.019 12.219 38.283 7.062 41.004 2.913L43.038 0C39.276 7.05 42.858 15.708 48.618 20.247C50.1594 21.4533 51.8776 22.4146 53.712 23.097C54.204 23.277 54.762 23.469 55.272 23.598C61.71 25.218 66.957 24.099 70.08 19.431C69.984 19.575 69.861 19.803 69.705 20.091C68.313 22.671 64.239 30.222 52.425 27.852C52.2 27.807 51.984 27.732 51.768 27.663L51.576 27.597L51.438 27.552C51.3744 27.53 51.3104 27.509 51.246 27.489C51.071 27.4288 50.897 27.3658 50.724 27.3C45.969 25.488 41.892 21.672 39.903 16.803V16.803Z" fill="white"/>
<path d="M24.36 8.89805C19.749 15.7831 20.001 25.0021 23.598 32.2861C24.2631 33.6414 25.0271 34.946 25.884 36.189C26.511 37.128 27.201 38.1691 28.008 38.8951C28.341 39.2761 28.689 39.6451 29.043 40.0081L29.247 40.2181L29.316 40.2871C29.6741 40.6491 30.0412 41.0022 30.417 41.346L30.42 41.3491L30.426 41.3551C30.8795 41.7654 31.3447 42.1625 31.821 42.5461L31.941 42.642C32.361 42.978 32.79 43.3081 33.231 43.6231L33.249 43.6351L33.27 43.6501C33.411 43.7521 33.555 43.8511 33.699 43.9471L33.858 44.0551C33.9521 44.1174 34.0452 44.1814 34.137 44.247C34.452 44.457 34.77 44.658 35.094 44.856L35.184 44.9071L35.229 44.9371C35.5764 45.1442 35.9275 45.3453 36.282 45.5401L36.375 45.5881L36.495 45.6541C36.651 45.7381 36.807 45.8251 36.969 45.9061L37.059 45.9511C37.523 46.1873 37.9932 46.4114 38.469 46.6231L38.565 46.6621C39.0115 46.8587 39.4627 47.0447 39.918 47.22L40.008 47.2531C40.317 47.3731 40.626 47.4811 40.938 47.5891L41.094 47.643L41.358 47.7301C41.475 47.7661 41.592 47.8081 41.706 47.8471C42.033 47.9611 42.36 48.0721 42.702 48.1321C66.504 52.2241 72 33.2041 72 33.2041C67.047 40.608 57.453 44.142 47.217 41.382C46.7637 41.2582 46.3136 41.1231 45.867 40.9771C45.7461 40.9398 45.6261 40.8997 45.507 40.8571L45.462 40.8421C45.1459 40.736 44.8318 40.624 44.52 40.5061L44.511 40.5001C43.9933 40.3041 43.4811 40.0941 42.975 39.8701L42.807 39.7951C42.2171 39.5284 41.6368 39.2412 41.067 38.934L40.941 38.8681L40.581 38.6761C40.2523 38.4924 39.9272 38.3024 39.606 38.106C38.9714 37.7185 38.351 37.3083 37.746 36.876C37.309 36.5606 36.8799 36.2345 36.459 35.898L36.354 35.8111C36.2927 35.7614 36.2317 35.7114 36.171 35.6611C31.689 31.9891 28.137 26.9701 26.451 21.2821C24.681 15.3781 25.062 8.75405 28.128 3.37805L24.36 8.89805Z" fill="white"/>
<path d="M4.57203 16.911C-1.79997 26.421 -1.00797 38.796 3.86103 48.9C3.95103 49.095 4.05003 49.287 4.14603 49.476L4.21803 49.62L4.30803 49.797C4.38349 49.9543 4.46352 50.1094 4.54803 50.262L4.58703 50.337L4.79703 50.727L4.84203 50.808C4.99203 51.084 5.14803 51.36 5.30703 51.636L5.35803 51.726C5.59844 52.1454 5.84952 52.5585 6.11103 52.965L6.16503 53.055L6.34203 53.334C6.59403 53.724 6.85203 54.117 7.12203 54.504V54.507C7.12842 54.5165 7.13543 54.5255 7.14303 54.534L7.21503 54.633L7.27503 54.717C7.50903 55.047 7.74603 55.377 7.98903 55.701L8.25903 56.055C8.84707 56.8171 9.45528 57.5633 10.083 58.293L10.101 58.314L10.116 58.329L10.137 58.353C10.7735 59.07 11.4318 59.7674 12.111 60.444L12.201 60.534L12.414 60.744C12.754 61.0763 13.1001 61.4024 13.452 61.722L13.551 61.812L13.629 61.878C14.0045 62.2132 14.3845 62.5432 14.769 62.868L14.937 63.009C15.192 63.219 15.45 63.429 15.711 63.633L16.122 63.96C16.41 64.179 16.698 64.395 16.989 64.605L17.037 64.641L17.307 64.839L17.391 64.899C17.655 65.091 17.922 65.271 18.192 65.451L18.234 65.481C18.3551 65.5625 18.4751 65.6455 18.594 65.73C19.0948 66.0587 19.6019 66.3778 20.115 66.687L20.277 66.783C20.7313 67.0513 21.1903 67.3114 21.654 67.563L21.813 67.65L21.99 67.746C22.167 67.842 22.341 67.938 22.521 68.031L22.596 68.067L22.686 68.112L22.788 68.163C22.848 68.193 22.911 68.223 22.974 68.259C23.346 68.442 23.718 68.622 24.096 68.799L24.237 68.862L24.333 68.907C25.2705 69.3339 26.2242 69.7242 27.192 70.077L27.222 70.086L27.348 70.134C28.032 70.38 28.7222 70.6081 29.418 70.818C29.766 70.935 30.117 71.049 30.477 71.118C61.308 76.956 70.263 51.888 70.263 51.888C62.742 62.058 49.392 64.743 36.741 61.755C36.265 61.6395 35.7945 61.5024 35.331 61.344L34.977 61.233C34.521 61.089 34.068 60.933 33.618 60.774L33.432 60.705C33.027 60.555 32.631 60.405 32.232 60.243L31.896 60.105C31.4616 59.927 31.0306 59.741 30.603 59.547L30.465 59.487C30.0585 59.2982 29.6545 59.1042 29.253 58.905L29.13 58.839C29.0658 58.8084 29.0018 58.7774 28.938 58.746L28.296 58.407L28.092 58.299C28.0253 58.2626 27.9583 58.2266 27.891 58.191L27.531 57.993C27.189 57.804 26.853 57.603 26.517 57.402L26.388 57.327L26.178 57.207C25.6558 56.8848 25.1397 56.5527 24.63 56.211L24.501 56.121C23.2207 55.2673 21.9934 54.3366 20.826 53.334C20.4694 53.0324 20.1173 52.7254 19.77 52.413L19.722 52.368C19.266 51.9485 18.8179 51.5204 18.378 51.084C18.124 50.833 17.8739 50.578 17.628 50.319L17.526 50.217C17.1375 49.8109 16.7574 49.3969 16.386 48.975L16.368 48.957L16.362 48.948C16.044 48.588 15.732 48.216 15.426 47.844L15.18 47.541C14.866 47.1515 14.5589 46.7565 14.259 46.356C13.995 45.996 13.734 45.642 13.479 45.279C6.45903 35.337 3.93603 21.621 9.54903 10.359L4.57203 16.911Z" fill="white"/>
</g>
<defs>
<clipPath id="clip0_502_2103">
<rect width="72" height="72" fill="white"/>
</clipPath>
</defs>
</svg>
