<svg width="72" height="72" viewBox="0 0 72 72" fill="none" xmlns="http://www.w3.org/2000/svg">
<g clip-path="url(#clip0_502_2113)">
<path fill-rule="evenodd" clip-rule="evenodd" d="M63.0001 20.25V63C63.0001 65.3869 62.0519 67.6761 60.364 69.364C58.6762 71.0518 56.387 72 54.0001 72H36.0001V67.5H54.0001C55.1936 67.5 56.3381 67.0259 57.1821 66.182C58.026 65.3381 58.5001 64.1935 58.5001 63V20.25H49.5001C47.7099 20.25 45.993 19.5388 44.7271 18.273C43.4612 17.0071 42.7501 15.2902 42.7501 13.5V4.5H18.0001C16.8066 4.5 15.662 4.97411 14.8181 5.81802C13.9742 6.66193 13.5001 7.80653 13.5001 9V49.5H9.00008V9C9.00008 6.61305 9.94829 4.32387 11.6361 2.63604C13.3239 0.948212 15.6131 0 18.0001 0L42.7501 0L63.0001 20.25ZM14.3371 68.805C14.0385 68.1712 13.8687 67.4844 13.8376 66.7845H17.2801C17.3426 67.1358 17.4767 67.4706 17.6741 67.7678C17.8715 68.0651 18.128 68.3186 18.4276 68.5125C18.7426 68.733 19.1161 68.904 19.5481 69.0255C19.9756 69.1515 20.4571 69.21 20.9836 69.21C21.7216 69.21 22.3426 69.1065 22.8421 68.895C23.301 68.7234 23.6998 68.4216 23.9896 68.0265C24.2468 67.6405 24.3802 67.1853 24.3721 66.7215C24.3848 66.4395 24.3288 66.1586 24.2089 65.903C24.0889 65.6475 23.9087 65.4249 23.6836 65.2545C23.2291 64.8945 22.5361 64.6065 21.6046 64.386L18.8191 63.7425C17.9619 63.5611 17.1417 63.2355 16.3936 62.7795C15.7339 62.3739 15.1899 61.8051 14.8141 61.128C14.4313 60.4021 14.2407 59.5904 14.2606 58.77C14.2606 57.672 14.5441 56.7135 15.1156 55.8945C15.6871 55.08 16.4791 54.4455 17.4916 53.9955C18.4996 53.5455 19.6651 53.325 20.9836 53.325C22.3561 53.325 23.5216 53.55 24.4936 54.009C25.4656 54.468 26.2171 55.0845 26.7436 55.854C27.2836 56.619 27.5806 57.4695 27.6436 58.401H24.2686C24.1915 57.974 24.0055 57.5741 23.7286 57.24C23.4315 56.8804 23.0495 56.6005 22.6171 56.4255C22.0904 56.2109 21.5252 56.1067 20.9566 56.1195C19.9801 56.1195 19.2106 56.3445 18.6481 56.8035C18.3843 57.0065 18.172 57.2687 18.0282 57.5688C17.8843 57.869 17.8131 58.1987 17.8201 58.5315C17.8201 59.076 18.0361 59.5215 18.4636 59.8815C19.0025 60.2805 19.6262 60.55 20.2861 60.669L23.0761 61.3125C24.0571 61.5375 24.9031 61.8525 25.6231 62.262C26.3431 62.667 26.9056 63.207 27.3106 63.873C27.7156 64.539 27.9181 65.3805 27.9181 66.393C27.9181 67.5045 27.6346 68.49 27.0721 69.345C26.473 70.2255 25.6301 70.9121 24.6466 71.3205C23.5936 71.793 22.3066 72.0315 20.7856 72.0315C19.6426 72.0315 18.6436 71.8965 17.7931 71.6265C17.0094 71.3913 16.2789 71.0062 15.6421 70.4925C15.0927 70.0286 14.6479 69.4534 14.3371 68.805V68.805ZM0.369084 68.6565C0.120785 67.9854 -0.00422253 67.275 8.37377e-05 66.5595H3.44258C3.4506 66.9853 3.56342 67.4026 3.77108 67.7745C3.97828 68.1278 4.27816 68.4177 4.63826 68.6128C4.99836 68.8079 5.40497 68.9008 5.81408 68.8815C6.66908 68.8815 7.29908 68.634 7.71308 68.1435C8.12708 67.6485 8.33408 66.951 8.33408 66.0465V53.694H11.8891V65.9565C11.8891 67.9365 11.3536 69.4395 10.2826 70.479C9.22058 71.514 7.74458 72.0315 5.85458 72.0315C4.98243 72.0478 4.11466 71.9044 3.29408 71.6085C2.60493 71.3452 1.98035 70.937 1.46258 70.4115C0.982739 69.9068 0.610683 69.3097 0.369084 68.6565V68.6565Z" fill="white"/>
</g>
<defs>
<clipPath id="clip0_502_2113">
<rect width="72" height="72" fill="white"/>
</clipPath>
</defs>
</svg>
