<svg width="72" height="72" viewBox="0 0 72 72" fill="none" xmlns="http://www.w3.org/2000/svg">
<path fill-rule="evenodd" clip-rule="evenodd" d="M63 20.25V63C63 65.3869 62.0518 67.6761 60.364 69.364C58.6761 71.0518 56.3869 72 54 72H49.5V67.5H54C55.1935 67.5 56.3381 67.0259 57.182 66.182C58.0259 65.3381 58.5 64.1935 58.5 63V20.25H49.5C47.7098 20.25 45.9929 19.5388 44.727 18.273C43.4612 17.0071 42.75 15.2902 42.75 13.5V4.5H18C16.8065 4.5 15.6619 4.97411 14.818 5.81802C13.9741 6.66193 13.5 7.80653 13.5 9V49.5H9V9C9 6.61305 9.94821 4.32387 11.636 2.63604C13.3239 0.948212 15.6131 0 18 0L42.75 0L63 20.25ZM7.2 53.325H0V71.3205H3.5595V65.2815H7.173C8.4645 65.2815 9.5625 65.025 10.467 64.503C11.3805 63.9765 12.078 63.2655 12.5505 62.37C13.0409 61.4303 13.2899 60.3834 13.275 59.3235C13.275 58.1985 13.0365 57.1815 12.564 56.277C12.094 55.3779 11.3755 54.6328 10.494 54.1305C9.594 53.5905 8.5005 53.325 7.2 53.325V53.325ZM9.6525 59.3235C9.66872 59.9164 9.53728 60.504 9.27 61.0335C9.03021 61.4945 8.65696 61.8725 8.199 62.118C7.67515 62.3772 7.09571 62.5039 6.5115 62.487H3.546V56.16H6.516C7.497 56.16 8.2665 56.43 8.82 56.9745C9.3735 57.5235 9.6525 58.302 9.6525 59.3235ZM29.8125 71.3205V53.325H26.2575V60.642H18.6885V53.325H15.1335V71.3205H18.6885V63.6075H26.2575V71.3205H29.8125V71.3205ZM32.976 53.325H40.176C41.472 53.325 42.5745 53.595 43.47 54.1305C44.37 54.657 45.063 55.3725 45.54 56.277C46.0125 57.1815 46.251 58.1985 46.251 59.3235C46.251 60.4485 46.008 61.4655 45.5265 62.37C45.0495 63.2655 44.3565 63.9765 43.443 64.503C42.4311 65.0481 41.2933 65.3166 40.1445 65.2815H36.54V71.3205H32.9805V53.325H32.976ZM42.246 61.038C42.5125 60.5068 42.6424 59.9175 42.624 59.3235C42.624 58.302 42.3495 57.5235 41.796 56.979C41.2425 56.43 40.473 56.16 39.4875 56.16H36.5175V62.487H39.4875C40.0717 62.5039 40.6511 62.3772 41.175 62.118C41.6306 61.8729 42.0022 61.4967 42.2415 61.038H42.246Z" fill="white"/>
</svg>
