<svg width="72" height="72" viewBox="0 0 72 72" fill="none" xmlns="http://www.w3.org/2000/svg">
<g clip-path="url(#clip0_502_2115)">
<path fill-rule="evenodd" clip-rule="evenodd" d="M25.512 8.81764C23.592 8.26084 22.176 8.40964 21.144 8.97124C20.1072 9.52804 19.2048 10.6368 18.6192 12.5472C18.0336 14.472 17.8368 17.04 18.12 20.1408C18.168 20.6448 18.2256 21.1584 18.2976 21.6816C20.9455 21.017 23.6323 20.5184 26.3424 20.1888C28.1938 17.5746 30.2396 15.1036 32.4624 12.7968C32.3573 12.7114 32.2517 12.6266 32.1456 12.5424C29.7072 10.6128 27.4416 9.37444 25.512 8.81764V8.81764ZM36 9.48964C35.712 9.24964 35.4192 9.00964 35.1264 8.77924C32.3808 6.60964 29.568 4.99204 26.8512 4.20484C24.1152 3.41284 21.3168 3.41284 18.8544 4.75204C16.392 6.08644 14.856 8.43364 14.0304 11.1552C13.2048 13.8624 13.0224 17.0976 13.3392 20.5872C13.416 21.4032 13.5168 22.2384 13.6512 23.0976C12.8352 23.3856 12.048 23.6976 11.2992 24.0192C8.0784 25.3968 5.3184 27.1008 3.3312 29.1168C1.3344 31.1376 0 33.6 0 36.4032C0 39.2016 1.3344 41.6688 3.3312 43.6944C5.3184 45.7104 8.0784 47.4096 11.2992 48.792C12.048 49.1136 12.8352 49.4208 13.6512 49.7136C13.5218 50.5471 13.4177 51.3843 13.3392 52.224C13.0224 55.7088 13.2048 58.944 14.0304 61.656C14.856 64.3776 16.392 66.7248 18.8544 68.0544C21.3168 69.3888 24.12 69.3936 26.8512 68.6016C29.568 67.8096 32.3808 66.2016 35.1264 64.0272L36 63.312C36.288 63.5568 36.5808 63.792 36.8736 64.0272C39.6192 66.1968 42.432 67.8096 45.1488 68.6016C47.88 69.3936 50.6832 69.3888 53.1456 68.0544C55.608 66.7248 57.144 64.3776 57.9696 61.656C58.7952 58.9488 58.9776 55.7088 58.6608 52.224C58.5824 51.3843 58.4784 50.5471 58.3488 49.7136C59.1425 49.4317 59.9269 49.1243 60.7008 48.792C63.9216 47.4096 66.6816 45.7056 68.6688 43.6944C70.6656 41.6688 72 39.2016 72 36.3984C72 33.6048 70.6656 31.1376 68.6688 29.112C66.6816 27.096 63.9216 25.392 60.7008 24.0144C59.9263 23.6836 59.1419 23.3763 58.3488 23.0928C58.4784 22.2336 58.584 21.3984 58.6608 20.5824C58.9776 17.0928 58.7952 13.8624 57.9696 11.1504C57.144 8.42884 55.608 6.08164 53.1456 4.74724C50.688 3.41284 47.88 3.41284 45.1488 4.20484C42.432 4.99204 39.6192 6.60484 36.8736 8.77924L36 9.49444V9.48964ZM36 16.0416C34.92 17.1456 33.84 18.36 32.7744 19.6656C34.924 19.5806 37.076 19.5806 39.2256 19.6656C38.2046 18.4105 37.1283 17.2013 36 16.0416V16.0416ZM45.6576 20.1888C43.6896 17.4336 41.6256 14.9472 39.5376 12.7968L39.8496 12.5424C42.2976 10.6128 44.5536 9.37444 46.488 8.81764C48.4032 8.26084 49.824 8.40964 50.856 8.97124C51.8928 9.52804 52.7952 10.6368 53.376 12.5472C53.9616 14.472 54.1632 17.04 53.88 20.1408C53.832 20.6448 53.7744 21.1584 53.7024 21.6768C51.0544 21.0138 48.3676 20.5168 45.6576 20.1888V20.1888ZM42.9552 24.72C38.3284 24.2892 33.6716 24.2892 29.0448 24.72C26.5731 28.4173 24.435 32.3271 22.656 36.4032C24.4352 40.4768 26.5716 44.3848 29.04 48.0816C33.67 48.5129 38.33 48.5129 42.96 48.0816C45.4298 44.3857 47.5662 40.4775 49.344 36.4032C47.5651 32.328 45.4287 28.4184 42.96 24.72H42.9552ZM51.7104 30.1824C50.9158 28.6265 50.0722 27.0962 49.1808 25.5936C50.4288 25.8336 51.6336 26.1024 52.7904 26.4C52.488 27.6288 52.128 28.896 51.7104 30.1824V30.1824ZM51.7104 42.6192C50.9171 44.1774 50.0735 45.7094 49.1808 47.2128C50.4288 46.9728 51.6336 46.704 52.7904 46.4016C52.4747 45.1286 52.1145 43.867 51.7104 42.6192V42.6192ZM57.3744 44.9568C56.6287 42.0449 55.6857 39.1871 54.552 36.4032C55.7328 33.4752 56.6784 30.6 57.3744 27.8496C57.8688 28.032 58.3488 28.2288 58.8144 28.4256C61.6752 29.6544 63.84 31.0512 65.2512 32.4816C66.6528 33.9024 67.2 35.2272 67.2 36.4032C67.2 37.5792 66.6528 38.8992 65.2512 40.32C63.84 41.7552 61.6752 43.152 58.8144 44.3808C58.3386 44.5832 57.8585 44.7753 57.3744 44.9568ZM53.7024 51.1248C51.0547 51.7905 48.3678 52.2891 45.6576 52.6176C43.6896 55.3728 41.6256 57.8544 39.5376 60.0096L39.8544 60.2592C42.2928 62.1936 44.5584 63.4272 46.488 63.9888C48.4032 64.5456 49.824 64.3968 50.856 63.8352C51.8928 63.2736 52.7952 62.1648 53.376 60.2544C53.9664 58.3344 54.1632 55.7616 53.88 52.6608C53.8319 52.1476 53.7727 51.6355 53.7024 51.1248V51.1248ZM36 56.7648C37.08 55.6608 38.16 54.4464 39.2256 53.1408C37.076 53.2262 34.924 53.2262 32.7744 53.1408C33.84 54.4464 34.92 55.656 36 56.7648ZM22.8192 47.2128C21.9269 45.7092 21.0833 44.1772 20.2896 42.6192C19.872 43.9152 19.512 45.1728 19.2096 46.4016C20.3616 46.704 21.5712 46.9728 22.8192 47.2128ZM18.2976 51.1248C20.9453 51.7905 23.6322 52.2891 26.3424 52.6176C28.3104 55.3728 30.3696 57.8544 32.4624 60.0096C32.3573 60.0935 32.2517 60.1767 32.1456 60.2592C29.7072 62.1936 27.4416 63.4272 25.512 63.9888C23.592 64.5456 22.176 64.3968 21.1392 63.8352C20.1024 63.2736 19.2048 62.1648 18.6192 60.2544C18.0336 58.3344 17.8368 55.7616 18.12 52.6608C18.1682 52.1476 18.2274 51.6355 18.2976 51.1248V51.1248ZM14.6256 44.9568C15.3216 42.2016 16.2624 39.3312 17.448 36.4032C16.3143 33.6194 15.3713 30.7616 14.6256 27.8496C14.142 28.0325 13.6619 28.2246 13.1856 28.4256C10.3248 29.6544 8.16 31.0512 6.7488 32.4816C5.3472 33.9024 4.8 35.2272 4.8 36.4032C4.8 37.5792 5.3472 38.8992 6.7488 40.32C8.16 41.7552 10.3248 43.152 13.1856 44.3808C13.6512 44.5776 14.1312 44.7696 14.6256 44.9568ZM19.2096 26.4048C19.512 27.6288 19.872 28.896 20.2896 30.1824C21.0838 28.6263 21.9274 27.096 22.8192 25.5936C21.5712 25.8336 20.3664 26.1024 19.2096 26.4048V26.4048ZM28.8 36.4032C28.8 34.4937 29.5586 32.6623 30.9088 31.3121C32.2591 29.9618 34.0904 29.2032 36 29.2032C37.9096 29.2032 39.7409 29.9618 41.0912 31.3121C42.4414 32.6623 43.2 34.4937 43.2 36.4032C43.2 38.3128 42.4414 40.1441 41.0912 41.4944C39.7409 42.8447 37.9096 43.6032 36 43.6032C34.0904 43.6032 32.2591 42.8447 30.9088 41.4944C29.5586 40.1441 28.8 38.3128 28.8 36.4032V36.4032ZM36 34.0032C35.3635 34.0032 34.753 34.2561 34.3029 34.7062C33.8529 35.1563 33.6 35.7667 33.6 36.4032C33.6 37.0398 33.8529 37.6502 34.3029 38.1003C34.753 38.5504 35.3635 38.8032 36 38.8032C36.6365 38.8032 37.247 38.5504 37.6971 38.1003C38.1471 37.6502 38.4 37.0398 38.4 36.4032C38.4 35.7667 38.1471 35.1563 37.6971 34.7062C37.247 34.2561 36.6365 34.0032 36 34.0032Z" fill="white"/>
</g>
<defs>
<clipPath id="clip0_502_2115">
<rect width="72" height="72" fill="white"/>
</clipPath>
</defs>
</svg>
