<svg width="72" height="72" viewBox="0 0 72 72" fill="none" xmlns="http://www.w3.org/2000/svg">
<g clip-path="url(#clip0_502_2095)">
<path fill-rule="evenodd" clip-rule="evenodd" d="M63 20.25V49.5H58.5V20.25H49.5C47.7098 20.25 45.9929 19.5388 44.727 18.273C43.4611 17.0071 42.75 15.2902 42.75 13.5V4.5H18C16.8065 4.5 15.6619 4.97411 14.818 5.81802C13.9741 6.66193 13.5 7.80653 13.5 9V49.5H8.99998V9C8.99998 6.61305 9.94819 4.32387 11.636 2.63604C13.3238 0.948212 15.613 0 18 0L42.75 0L63 20.25ZM6.10198 68.805C5.80337 68.1712 5.63359 67.4844 5.60248 66.7845H9.04498C9.10748 67.1358 9.2416 67.4706 9.43901 67.7678C9.63643 68.0651 9.8929 68.3186 10.1925 68.5125C10.5075 68.733 10.881 68.904 11.313 69.0255C11.7405 69.1515 12.222 69.21 12.7485 69.21C13.4865 69.21 14.1075 69.1065 14.607 68.895C15.0659 68.7234 15.4647 68.4216 15.7545 68.0265C16.0119 67.6406 16.1454 67.1853 16.137 66.7215C16.1497 66.4395 16.0937 66.1586 15.9738 65.903C15.8538 65.6475 15.6735 65.4249 15.4485 65.2545C14.994 64.8945 14.301 64.6065 13.3695 64.386L10.584 63.7425C9.7268 63.5611 8.90664 63.2355 8.15848 62.7795C7.49877 62.3739 6.95476 61.8051 6.57898 61.128C6.19619 60.4021 6.00564 59.5904 6.02548 58.77C6.02548 57.672 6.30898 56.7135 6.88048 55.8945C7.45198 55.08 8.24398 54.4455 9.25648 53.9955C10.2645 53.5455 11.43 53.325 12.7485 53.325C14.121 53.325 15.2865 53.55 16.2585 54.009C17.2305 54.468 17.982 55.0845 18.5085 55.854C19.0485 56.619 19.3455 57.4695 19.4085 58.401H16.0335C15.9564 57.974 15.7704 57.5741 15.4935 57.24C15.1964 56.8804 14.8144 56.6005 14.382 56.4255C13.8553 56.2109 13.2901 56.1067 12.7215 56.1195C11.745 56.1195 10.9755 56.3445 10.413 56.8035C10.1492 57.0065 9.93687 57.2687 9.79305 57.5688C9.64922 57.869 9.57795 58.1987 9.58498 58.5315C9.58498 59.076 9.80098 59.5215 10.2285 59.8815C10.7674 60.2805 11.3911 60.55 12.051 60.669L14.841 61.3125C15.8175 61.5375 16.668 61.8525 17.388 62.262C18.108 62.667 18.6705 63.207 19.0755 63.873C19.4805 64.539 19.683 65.3805 19.683 66.393C19.683 67.5045 19.3995 68.49 18.837 69.345C18.2379 70.2255 17.395 70.9121 16.4115 71.3205C15.3585 71.793 14.0715 72.0315 12.5505 72.0315C11.4075 72.0315 10.4085 71.8965 9.55798 71.6265C8.77432 71.3913 8.04379 71.0062 7.40698 70.4925C6.85756 70.0286 6.41277 69.4534 6.10198 68.805V68.805ZM25.335 58.77C25.0045 59.6824 24.8473 60.6484 24.8715 61.6185V63.846C24.8715 64.953 25.0245 65.8935 25.335 66.6675C25.594 67.3772 26.0614 67.9921 26.676 68.4315C27.3176 68.8399 28.0667 69.0468 28.827 69.0255C29.4515 69.0397 30.0703 68.9039 30.6315 68.6295C31.1339 68.3728 31.5582 67.9858 31.86 67.509C32.1649 67.0151 32.3456 66.4546 32.3865 65.8755H35.829V66.2175C35.7856 67.3047 35.4328 68.3569 34.812 69.2505C34.1787 70.1352 33.3256 70.8393 32.337 71.2935C31.2281 71.8012 30.0194 72.0534 28.8 72.0315C27.18 72.0315 25.812 71.7075 24.687 71.055C23.5645 70.3985 22.6683 69.416 22.1175 68.238C21.5325 67.014 21.2445 65.5515 21.2445 63.846V61.605C21.2445 59.895 21.5415 58.4325 22.131 57.1995C22.6792 56.0131 23.5733 55.0201 24.696 54.351C25.8345 53.685 27.2025 53.352 28.8 53.352C29.7855 53.352 30.6945 53.496 31.5315 53.7885C32.373 54.0675 33.1065 54.477 33.732 55.0125C34.3643 55.5497 34.8775 56.2131 35.2386 56.9601C35.5997 57.7071 35.8008 58.5213 35.829 59.3505V59.679H32.3865C32.3445 59.0743 32.1594 58.4882 31.8465 57.969C31.5523 57.4723 31.1274 57.066 30.618 56.7945C30.0688 56.4966 29.4517 56.3462 28.827 56.358C28.0673 56.3383 27.3203 56.5553 26.6895 56.979C26.0724 57.4306 25.6014 58.0533 25.335 58.77V58.77ZM37.0755 66.7845C37.1012 67.4935 37.2751 68.1894 37.5859 68.8272C37.8967 69.465 38.3375 70.0307 38.88 70.488C39.4605 70.974 40.176 71.352 41.031 71.622C41.886 71.8965 42.876 72.0315 44.0235 72.0315C45.5445 72.0315 46.8315 71.793 47.8845 71.3205C48.9465 70.848 49.7565 70.1865 50.3145 69.3405C50.882 68.4619 51.1749 67.4342 51.156 66.3885C51.156 65.3805 50.9535 64.5435 50.5485 63.8685C50.1364 63.1944 49.5545 62.6404 48.861 62.262C48.0639 61.8217 47.2054 61.5032 46.314 61.317L43.524 60.669C42.8637 60.5486 42.24 60.2776 41.7015 59.877C41.497 59.7182 41.3324 59.5139 41.2206 59.2803C41.1089 59.0468 41.0532 58.7904 41.058 58.5315C41.058 57.8295 41.3325 57.2535 41.886 56.8035C42.4485 56.349 43.218 56.1195 44.1945 56.1195C44.8335 56.1195 45.387 56.223 45.855 56.4255C46.2858 56.6009 46.6663 56.8809 46.962 57.24C47.2389 57.5741 47.4249 57.974 47.502 58.401H50.877C50.821 57.4845 50.5092 56.6021 49.977 55.854C49.4082 55.0463 48.6305 54.4085 47.727 54.009C46.622 53.5242 45.4232 53.2906 44.217 53.325C42.903 53.325 41.7375 53.55 40.725 54C39.717 54.4455 38.925 55.08 38.3535 55.8945C37.782 56.7135 37.4985 57.672 37.4985 58.77C37.4985 59.6745 37.6785 60.462 38.052 61.128C38.421 61.7985 38.9475 62.343 39.6315 62.7795C40.3155 63.207 41.1255 63.531 42.0615 63.738L44.838 64.386C45.7695 64.6065 46.467 64.8945 46.9215 65.2545C47.1465 65.4249 47.3268 65.6475 47.4468 65.903C47.5667 66.1586 47.6227 66.4395 47.61 66.7215C47.6167 67.1851 47.4834 67.6399 47.2275 68.0265C46.9379 68.4218 46.539 68.7237 46.08 68.895C45.4873 69.1214 44.8557 69.2285 44.2215 69.21C43.6905 69.21 43.2135 69.1515 42.7815 69.03C42.3821 68.9203 42.0035 68.7454 41.661 68.5125C41.3614 68.3186 41.1049 68.0651 40.9075 67.7678C40.7101 67.4706 40.576 67.1358 40.5135 66.7845H37.08H37.0755ZM52.8345 68.805C52.5374 68.1709 52.3692 67.4841 52.3395 66.7845H55.7775C55.84 67.1358 55.9741 67.4706 56.1715 67.7678C56.3689 68.0651 56.6254 68.3186 56.925 68.5125C57.24 68.733 57.6135 68.904 58.0455 69.0255C58.473 69.1515 58.9545 69.21 59.481 69.21C60.219 69.21 60.84 69.1065 61.3395 68.895C61.7985 68.7237 62.1974 68.4218 62.487 68.0265C62.7444 67.6406 62.8779 67.1853 62.8695 66.7215C62.8827 66.4399 62.8274 66.1592 62.7083 65.9037C62.5891 65.6482 62.4097 65.4254 62.1855 65.2545C61.7265 64.8945 61.0335 64.6065 60.102 64.386L57.321 63.7425C56.4622 63.5616 55.6405 63.2359 54.891 62.7795C54.2314 62.3738 53.6874 61.805 53.3115 61.128C52.9287 60.4021 52.7381 59.5904 52.758 58.77C52.758 57.672 53.0415 56.7135 53.613 55.8945C54.1845 55.08 54.9765 54.4455 55.989 53.9955C56.997 53.5455 58.1625 53.325 59.481 53.325C60.8535 53.325 62.0235 53.55 62.991 54.009C63.963 54.468 64.7145 55.0845 65.241 55.854C65.781 56.619 66.078 57.4695 66.141 58.401H62.766C62.6889 57.974 62.5029 57.5741 62.226 57.24C61.929 56.8803 61.547 56.6003 61.1145 56.4255C60.5878 56.2109 60.0226 56.1067 59.454 56.1195C58.4775 56.1195 57.7125 56.3445 57.15 56.8035C56.8854 57.006 56.6722 57.268 56.5276 57.5682C56.3829 57.8684 56.311 58.1984 56.3175 58.5315C56.3175 59.076 56.5335 59.5215 56.961 59.8815C57.4999 60.2805 58.1236 60.55 58.7835 60.669L61.5735 61.3125C62.5545 61.5375 63.4005 61.8525 64.1205 62.262C64.8405 62.667 65.403 63.207 65.808 63.873C66.213 64.539 66.4155 65.3805 66.4155 66.393C66.4155 67.5045 66.1365 68.49 65.574 69.345C64.9735 70.226 64.129 70.9126 63.144 71.3205C62.091 71.793 60.804 72.0315 59.283 72.0315C58.14 72.0315 57.141 71.8965 56.2905 71.6265C55.5068 71.3913 54.7763 71.0062 54.1395 70.4925C53.5902 70.0285 53.1454 69.4534 52.8345 68.805V68.805Z" fill="white"/>
</g>
<defs>
<clipPath id="clip0_502_2095">
<rect width="72" height="72" fill="white"/>
</clipPath>
</defs>
</svg>
