<svg width="64" height="72" viewBox="0 0 64 72" fill="none" xmlns="http://www.w3.org/2000/svg">
<g clip-path="url(#clip0_502_2107)">
<path d="M63.162 17.4668L31.4965 0L0.00439453 17.5575L0.0561445 54.3808L31.4993 72L63.2139 54.2973L63.1622 17.4668H63.162ZM47.4417 43.1294L47.4212 28.5342L33.1188 36.721L33.1871 53.0987L45.6648 46.1597L57.901 53.2395L33.2452 67.002L33.1871 53.0987L31.4979 54.0381L29.6736 53.0121L29.732 66.9825L5.35222 53.3215L17.5718 46.2054L29.6736 53.0121L29.6051 36.5721L15.7765 28.7958L15.7967 43.1737L3.56347 50.2978L3.52368 21.9056L15.7765 28.7958L17.552 25.7638L5.07969 18.7501L29.7445 4.99922V18.9408L17.552 25.7639L31.4933 33.6036L45.4372 25.622L33.2577 18.9285V4.98361L57.8217 18.533L45.4372 25.6219L47.4212 28.5342L59.6547 21.5317L59.6949 50.2187L47.4417 43.1293V43.1294Z" fill="white"/>
</g>
<defs>
<clipPath id="clip0_502_2107">
<rect width="63.29" height="72" fill="white"/>
</clipPath>
</defs>
</svg>
