<svg width="169" height="32" viewBox="0 0 169 32" fill="none" xmlns="http://www.w3.org/2000/svg">
<path fill-rule="evenodd" clip-rule="evenodd" d="M14.9453 26.116C21.2868 26.116 26.4276 21.1499 26.4276 15.024C26.4276 8.89809 21.2868 3.93204 14.9453 3.93204C8.60375 3.93204 3.46293 8.89809 3.46293 15.024C3.46293 21.1499 8.60375 26.116 14.9453 26.116ZM14.9453 27.055C21.8237 27.055 27.3997 21.6685 27.3997 15.024C27.3997 8.37949 21.8237 2.99304 14.9453 2.99304C8.0669 2.99304 2.49088 8.37949 2.49088 15.024C2.49088 21.6685 8.0669 27.055 14.9453 27.055Z" fill="#CD5FF8"/>
<path fill-rule="evenodd" clip-rule="evenodd" d="M12.9696 3.43816L13.2185 0.939002H16.8213L17.0651 3.4706C17.4081 3.55068 17.7435 3.64976 18.0699 3.76662L17.743 0.372758C17.7227 0.161528 17.5392 0 17.3196 0H12.7218C12.5027 0 12.3195 0.1608 12.2985 0.371476L11.9654 3.71617C12.292 3.60541 12.6271 3.51234 12.9696 3.43816Z" fill="#CD5FF8"/>
<path fill-rule="evenodd" clip-rule="evenodd" d="M17.0656 26.5618L16.8168 29.061H13.214L12.9702 26.5294C12.6271 26.4493 12.2918 26.3502 11.9654 26.2334L12.2923 29.6272C12.3126 29.8385 12.4961 30 12.7157 30H17.3135C17.5326 30 17.7158 29.8392 17.7368 29.6285L18.0699 26.2838C17.7433 26.3946 17.4082 26.4877 17.0656 26.5618Z" fill="#CD5FF8"/>
<path fill-rule="evenodd" clip-rule="evenodd" d="M24.3676 7.489L26.7325 6.44763L28.5339 9.46165L26.3862 10.9314C26.4859 11.2584 26.5648 11.5885 26.6232 11.92L29.5024 9.94961C29.6816 9.82698 29.7347 9.59271 29.6249 9.40899L27.326 5.5626C27.2164 5.3793 26.9807 5.30641 26.7813 5.3942L23.6162 6.7879C23.8788 7.00569 24.1298 7.23954 24.3676 7.489Z" fill="#CD5FF8"/>
<path fill-rule="evenodd" clip-rule="evenodd" d="M5.63243 22.5068L3.26749 23.5482L1.4661 20.5342L3.61378 19.0644C3.51407 18.7374 3.43522 18.4074 3.37679 18.0759L0.4976 20.0462C0.318403 20.1689 0.265339 20.4031 0.375143 20.5869L2.67402 24.4333C2.78357 24.6165 3.01934 24.6894 3.21871 24.6017L6.38379 23.208C6.12122 22.9902 5.87021 22.7563 5.63243 22.5068Z" fill="#CD5FF8"/>
<path fill-rule="evenodd" clip-rule="evenodd" d="M3.58444 10.9156L1.46837 9.4578L3.26976 6.44379L5.66126 7.50561C5.90456 7.25869 6.16105 7.02769 6.42902 6.81306L3.22297 5.38957C3.02343 5.30098 2.78688 5.37372 2.67707 5.55744L0.378199 9.40383C0.26865 9.58713 0.321187 9.82082 0.49957 9.94371L3.33157 11.8947C3.39554 11.5662 3.47968 11.2392 3.58444 10.9156Z" fill="#CD5FF8"/>
<path fill-rule="evenodd" clip-rule="evenodd" d="M26.4156 19.0801L28.5316 20.5379L26.7302 23.5519L24.3387 22.4901C24.0954 22.737 23.8389 22.968 23.571 23.1827L26.777 24.6062C26.9766 24.6947 27.2131 24.622 27.3229 24.4383L29.6218 20.5919C29.7314 20.4086 29.6788 20.1749 29.5004 20.052L26.6684 18.101C26.6045 18.4296 26.5203 18.7565 26.4156 19.0801Z" fill="#CD5FF8"/>
<path fill-rule="evenodd" clip-rule="evenodd" d="M22.8432 15.024C22.8432 19.2052 19.3344 22.5947 15.0061 22.5947C14.0556 22.5947 13.1447 22.4313 12.3017 22.1319C12.0685 22.0491 11.8033 22.1324 11.6791 22.3403V22.3403C11.5341 22.5829 11.6378 22.8945 11.9093 22.993C12.8727 23.3425 13.9163 23.5337 15.0061 23.5337C19.8712 23.5337 23.8153 19.7238 23.8153 15.024C23.8153 10.3242 19.8712 6.51428 15.0061 6.51428C10.1409 6.51428 6.19684 10.3242 6.19684 15.024C6.19684 17.4385 7.23781 19.6181 8.90985 21.1669C9.13041 21.3712 9.48583 21.3104 9.63861 21.0548V21.0548C9.75582 20.8587 9.71211 20.611 9.54402 20.4532C8.07902 19.0776 7.16889 17.1535 7.16889 15.024C7.16889 10.8428 10.6777 7.45328 15.0061 7.45328C19.3344 7.45328 22.8432 10.8428 22.8432 15.024Z" fill="#CD5FF8"/>
<path fill-rule="evenodd" clip-rule="evenodd" d="M22.904 15.024C22.904 19.2376 19.3679 22.6534 15.0061 22.6534C14.0483 22.6534 13.1303 22.4887 12.2808 22.187C12.0733 22.1133 11.8401 22.1882 11.7317 22.3696C11.6041 22.5831 11.6967 22.8532 11.9307 22.9381C12.8873 23.2852 13.9237 23.475 15.0061 23.475C19.8377 23.475 23.7545 19.6914 23.7545 15.024C23.7545 10.3566 19.8377 6.57297 15.0061 6.57297C10.1744 6.57297 6.25759 10.3566 6.25759 15.024C6.25759 17.4218 7.29131 19.5864 8.9519 21.1246C9.14191 21.3006 9.45145 21.2506 9.586 21.0254C9.68838 20.8541 9.65116 20.6356 9.50167 20.4953C8.02539 19.1091 7.10814 17.17 7.10814 15.024C7.10814 10.8104 10.6442 7.3946 15.0061 7.3946C19.3679 7.3946 22.904 10.8104 22.904 15.024ZM15.0061 22.5947C19.3344 22.5947 22.8432 19.2052 22.8432 15.024C22.8432 10.8428 19.3344 7.45328 15.0061 7.45328C10.6777 7.45328 7.16889 10.8428 7.16889 15.024C7.16889 17.1535 8.07902 19.0776 9.54402 20.4532C9.71211 20.611 9.75582 20.8587 9.63861 21.0548C9.48583 21.3104 9.13041 21.3712 8.90985 21.1669C7.23781 19.6181 6.19684 17.4385 6.19684 15.024C6.19684 10.3242 10.1409 6.51428 15.0061 6.51428C19.8712 6.51428 23.8153 10.3242 23.8153 15.024C23.8153 19.7238 19.8712 23.5337 15.0061 23.5337C13.9163 23.5337 12.8727 23.3425 11.9093 22.993C11.6378 22.8945 11.5341 22.5829 11.6791 22.3403C11.8033 22.1324 12.0685 22.0491 12.3017 22.1319C13.1447 22.4313 14.0556 22.5947 15.0061 22.5947Z" fill="#CD5FF8"/>
<path fill-rule="evenodd" clip-rule="evenodd" d="M16.5381 12.4193C16.77 12.5499 16.8484 12.8374 16.7132 13.0614L14.1278 17.3456C13.9926 17.5696 13.695 17.6453 13.4632 17.5147C13.2313 17.3841 13.1529 17.0967 13.288 16.8727L15.8735 12.5885C16.0086 12.3645 16.3062 12.2887 16.5381 12.4193Z" fill="#CD5FF8"/>
<path fill-rule="evenodd" clip-rule="evenodd" d="M12.1298 13.0085C12.3196 13.1918 12.3196 13.4891 12.1298 13.6724L10.4477 15.2973C10.2579 15.4806 9.95021 15.4806 9.7604 15.2973C9.5706 15.1139 9.5706 14.8167 9.7604 14.6333L11.4424 13.0085C11.6322 12.8251 11.94 12.8251 12.1298 13.0085Z" fill="#CD5FF8"/>
<path fill-rule="evenodd" clip-rule="evenodd" d="M9.80211 14.6921C9.99192 14.5087 10.2996 14.5087 10.4895 14.6921L12.0789 16.2275C12.2687 16.4109 12.2687 16.7082 12.0789 16.8915C11.8891 17.0749 11.5814 17.0749 11.3916 16.8915L9.80211 15.3561C9.61231 15.1727 9.61231 14.8754 9.80211 14.6921Z" fill="#CD5FF8"/>
<path fill-rule="evenodd" clip-rule="evenodd" d="M17.8215 16.8914C17.6317 16.7081 17.6317 16.4108 17.8215 16.2275L19.5035 14.6026C19.6934 14.4193 20.0011 14.4193 20.1909 14.6026C20.3807 14.786 20.3807 15.0832 20.1909 15.2666L18.5089 16.8914C18.3191 17.0748 18.0113 17.0748 17.8215 16.8914Z" fill="#CD5FF8"/>
<path fill-rule="evenodd" clip-rule="evenodd" d="M20.1492 15.2079C19.9594 15.3913 19.6517 15.3913 19.4619 15.2079L17.8724 13.6725C17.6826 13.4891 17.6826 13.1919 17.8724 13.0085C18.0622 12.8252 18.3699 12.8252 18.5597 13.0085L20.1492 14.544C20.339 14.7273 20.339 15.0246 20.1492 15.2079Z" fill="#CD5FF8"/>
<g filter="url(#filter0_d_410_2219)">
<path d="M35.723 15L33.2259 6.27273H35.2415L36.6861 12.3366H36.7585L38.3523 6.27273H40.0781L41.6676 12.3494H41.7443L43.1889 6.27273H45.2045L42.7074 15H40.9091L39.2472 9.29403H39.179L37.5213 15H35.723ZM46.1921 15V6.27273H52.0728V7.79403H48.0373V9.87358H51.7702V11.3949H48.0373V13.4787H52.0898V15H46.1921ZM53.5398 15V6.27273H57.0341C57.6761 6.27273 58.2116 6.3679 58.6406 6.55824C59.0696 6.74858 59.392 7.01278 59.608 7.35085C59.8239 7.68608 59.9318 8.07244 59.9318 8.50994C59.9318 8.85085 59.8636 9.15057 59.7273 9.40909C59.5909 9.66477 59.4034 9.875 59.1648 10.0398C58.929 10.2017 58.6591 10.3168 58.3551 10.3849V10.4702C58.6875 10.4844 58.9986 10.5781 59.2884 10.7514C59.581 10.9247 59.8182 11.1676 60 11.4801C60.1818 11.7898 60.2727 12.1591 60.2727 12.5881C60.2727 13.0511 60.1577 13.4645 59.9276 13.8281C59.7003 14.1889 59.3636 14.4744 58.9176 14.6847C58.4716 14.8949 57.9219 15 57.2685 15H53.5398ZM55.3849 13.4915H56.8892C57.4034 13.4915 57.7784 13.3935 58.0142 13.1974C58.25 12.9986 58.3679 12.7344 58.3679 12.4048C58.3679 12.1634 58.3097 11.9503 58.1932 11.7656C58.0767 11.581 57.9105 11.4361 57.6946 11.331C57.4815 11.2259 57.2273 11.1733 56.9318 11.1733H55.3849V13.4915ZM55.3849 9.92472H56.7528C57.0057 9.92472 57.2301 9.88068 57.4261 9.79261C57.625 9.7017 57.7813 9.57386 57.8949 9.40909C58.0114 9.24432 58.0696 9.04688 58.0696 8.81676C58.0696 8.50142 57.9574 8.24716 57.733 8.05398C57.5114 7.8608 57.196 7.7642 56.7869 7.7642H55.3849V9.92472ZM65.5174 9.91619V11.3565H61.5373V9.91619H65.5174ZM67.0984 15V6.27273H72.8768V7.79403H68.9435V9.87358H72.4933V11.3949H68.9435V15H67.0984ZM74.1179 15V6.27273H77.5611C78.2202 6.27273 78.7827 6.39062 79.2486 6.62642C79.7173 6.85937 80.0739 7.19034 80.3182 7.61932C80.5653 8.04545 80.6889 8.54687 80.6889 9.12358C80.6889 9.70312 80.5639 10.2017 80.3139 10.6193C80.0639 11.0341 79.7017 11.3523 79.2273 11.5739C78.7557 11.7955 78.1847 11.9062 77.5142 11.9062H75.2088V10.4233H77.2159C77.5682 10.4233 77.8608 10.375 78.0938 10.2784C78.3267 10.1818 78.5 10.0369 78.6136 9.84375C78.7301 9.65057 78.7884 9.41051 78.7884 9.12358C78.7884 8.83381 78.7301 8.58949 78.6136 8.39062C78.5 8.19176 78.3253 8.04119 78.0895 7.93892C77.8565 7.83381 77.5625 7.78125 77.2074 7.78125H75.9631V15H74.1179ZM78.831 11.0284L81 15H78.9631L76.8409 11.0284H78.831ZM81.9929 15V6.27273H87.8736V7.79403H83.8381V9.87358H87.571V11.3949H83.8381V13.4787H87.8906V15H81.9929ZM89.3406 15V6.27273H95.2212V7.79403H91.1857V9.87358H94.9187V11.3949H91.1857V13.4787H95.2383V15H89.3406ZM96.6882 15V6.27273H98.5334V13.4787H102.275V15H96.6882ZM105.224 15H103.246L106.259 6.27273H108.637L111.646 15H109.668L107.482 8.26705H107.414L105.224 15ZM105.1 11.5696H109.771V13.0099H105.1V11.5696ZM119.996 6.27273V15H118.402L114.605 9.5071H114.541V15H112.696V6.27273H114.315L118.082 11.7614H118.159V6.27273H119.996ZM129.221 9.32812H127.354C127.32 9.08665 127.25 8.87216 127.145 8.68466C127.04 8.49432 126.905 8.33239 126.74 8.19886C126.576 8.06534 126.385 7.96307 126.169 7.89205C125.956 7.82102 125.725 7.78551 125.475 7.78551C125.023 7.78551 124.63 7.89773 124.294 8.12216C123.959 8.34375 123.699 8.66761 123.515 9.09375C123.33 9.51705 123.238 10.0312 123.238 10.6364C123.238 11.2585 123.33 11.7812 123.515 12.2045C123.702 12.6278 123.963 12.9474 124.299 13.1634C124.634 13.3793 125.022 13.4872 125.462 13.4872C125.709 13.4872 125.938 13.4545 126.148 13.3892C126.361 13.3239 126.55 13.2287 126.715 13.1037C126.88 12.9759 127.016 12.821 127.124 12.6392C127.235 12.4574 127.311 12.25 127.354 12.017L129.221 12.0256C129.172 12.4261 129.051 12.8125 128.858 13.1847C128.668 13.554 128.411 13.8849 128.087 14.1776C127.766 14.4673 127.382 14.6974 126.936 14.8679C126.493 15.0355 125.992 15.1193 125.432 15.1193C124.654 15.1193 123.958 14.9432 123.344 14.5909C122.733 14.2386 122.25 13.7287 121.895 13.0611C121.543 12.3935 121.367 11.5852 121.367 10.6364C121.367 9.68466 121.546 8.875 121.904 8.20739C122.262 7.53977 122.748 7.03125 123.361 6.68182C123.975 6.32955 124.665 6.15341 125.432 6.15341C125.938 6.15341 126.407 6.22443 126.838 6.36648C127.273 6.50852 127.658 6.71591 127.993 6.98864C128.328 7.25852 128.601 7.58949 128.811 7.98153C129.025 8.37358 129.161 8.82244 129.221 9.32812ZM130.544 15V6.27273H136.424V7.79403H132.389V9.87358H136.122V11.3949H132.389V13.4787H136.441V15H130.544ZM137.891 15V6.27273H141.335C141.994 6.27273 142.556 6.39062 143.022 6.62642C143.491 6.85937 143.847 7.19034 144.092 7.61932C144.339 8.04545 144.462 8.54687 144.462 9.12358C144.462 9.70312 144.337 10.2017 144.087 10.6193C143.837 11.0341 143.475 11.3523 143.001 11.5739C142.529 11.7955 141.958 11.9062 141.288 11.9062H138.982V10.4233H140.989C141.342 10.4233 141.634 10.375 141.867 10.2784C142.1 10.1818 142.273 10.0369 142.387 9.84375C142.504 9.65057 142.562 9.41051 142.562 9.12358C142.562 8.83381 142.504 8.58949 142.387 8.39062C142.273 8.19176 142.099 8.04119 141.863 7.93892C141.63 7.83381 141.336 7.78125 140.981 7.78125H139.737V15H137.891ZM142.604 11.0284L144.773 15H142.737L140.614 11.0284H142.604ZM146.793 15.1108C146.512 15.1108 146.271 15.0114 146.069 14.8125C145.87 14.6108 145.771 14.3693 145.771 14.0881C145.771 13.8097 145.87 13.571 146.069 13.3722C146.271 13.1733 146.512 13.0739 146.793 13.0739C147.066 13.0739 147.305 13.1733 147.509 13.3722C147.714 13.571 147.816 13.8097 147.816 14.0881C147.816 14.2756 147.768 14.4474 147.671 14.6037C147.577 14.7571 147.454 14.8807 147.3 14.9744C147.147 15.0653 146.978 15.1108 146.793 15.1108ZM149.341 15V6.27273H152.784C153.443 6.27273 154.005 6.39062 154.471 6.62642C154.94 6.85937 155.297 7.19034 155.541 7.61932C155.788 8.04545 155.912 8.54687 155.912 9.12358C155.912 9.70312 155.787 10.2017 155.537 10.6193C155.287 11.0341 154.924 11.3523 154.45 11.5739C153.978 11.7955 153.407 11.9062 152.737 11.9062H150.431V10.4233H152.439C152.791 10.4233 153.083 10.375 153.316 10.2784C153.549 10.1818 153.723 10.0369 153.836 9.84375C153.953 9.65057 154.011 9.41051 154.011 9.12358C154.011 8.83381 153.953 8.58949 153.836 8.39062C153.723 8.19176 153.548 8.04119 153.312 7.93892C153.079 7.83381 152.785 7.78125 152.43 7.78125H151.186V15H149.341ZM154.054 11.0284L156.223 15H154.186L152.064 11.0284H154.054ZM162.606 6.27273H164.451V11.9403C164.451 12.5767 164.299 13.1335 163.995 13.6108C163.694 14.0881 163.272 14.4602 162.73 14.7273C162.187 14.9915 161.555 15.1236 160.833 15.1236C160.109 15.1236 159.475 14.9915 158.933 14.7273C158.39 14.4602 157.968 14.0881 157.667 13.6108C157.366 13.1335 157.216 12.5767 157.216 11.9403V6.27273H159.061V11.7827C159.061 12.1151 159.133 12.4105 159.278 12.669C159.426 12.9276 159.633 13.1307 159.9 13.2784C160.167 13.4261 160.478 13.5 160.833 13.5C161.191 13.5 161.502 13.4261 161.767 13.2784C162.034 13.1307 162.24 12.9276 162.385 12.669C162.532 12.4105 162.606 12.1151 162.606 11.7827V6.27273Z" fill="#C770F0"/>
</g>
<path d="M103.881 29V21.7273H104.761V24.9659H108.639V21.7273H109.52V29H108.639V25.7472H104.761V29H103.881ZM111.709 31.0455C111.567 31.0455 111.44 31.0336 111.329 31.0099C111.218 30.9886 111.141 30.9673 111.098 30.946L111.311 30.2074C111.515 30.2595 111.695 30.2784 111.851 30.2642C112.007 30.25 112.146 30.1802 112.267 30.0547C112.39 29.9316 112.502 29.7315 112.604 29.4545L112.76 29.0284L110.743 23.5455H111.652L113.158 27.892H113.215L114.721 23.5455H115.63L113.314 29.7955C113.21 30.0772 113.081 30.3104 112.927 30.495C112.773 30.6821 112.595 30.8205 112.391 30.9105C112.19 31.0005 111.962 31.0455 111.709 31.0455ZM116.395 29L118.611 26.2301L116.423 23.5455H117.418L119.236 25.875H119.69V23.5455H120.528V25.875H120.969L122.787 23.5455H123.781L121.608 26.2301L123.81 29H122.801L120.955 26.6562H120.528V29H119.69V26.6562H119.264L117.403 29H116.395ZM127.07 29.1136C126.544 29.1136 126.091 28.9976 125.71 28.7656C125.331 28.5312 125.038 28.2045 124.832 27.7855C124.629 27.3641 124.527 26.8741 124.527 26.3153C124.527 25.7566 124.629 25.2642 124.832 24.8381C125.038 24.4096 125.325 24.0758 125.692 23.8366C126.061 23.5952 126.492 23.4744 126.984 23.4744C127.268 23.4744 127.549 23.5218 127.826 23.6165C128.103 23.7112 128.355 23.8651 128.582 24.0781C128.81 24.2888 128.991 24.5682 129.126 24.9162C129.261 25.2642 129.328 25.6927 129.328 26.2017V26.5568H125.124V25.8324H128.476C128.476 25.5246 128.414 25.25 128.291 25.0085C128.17 24.767 127.998 24.5765 127.773 24.4368C127.55 24.2971 127.287 24.2273 126.984 24.2273C126.651 24.2273 126.362 24.3101 126.118 24.4759C125.876 24.6392 125.691 24.8523 125.56 25.1151C125.43 25.3778 125.365 25.6596 125.365 25.9602V26.4432C125.365 26.8551 125.436 27.2043 125.578 27.4908C125.723 27.7749 125.923 27.9915 126.178 28.1406C126.434 28.2874 126.731 28.3608 127.07 28.3608C127.29 28.3608 127.489 28.33 127.666 28.2685C127.846 28.2045 128.001 28.1098 128.131 27.9844C128.262 27.8565 128.362 27.6979 128.433 27.5085L129.243 27.7358C129.158 28.0104 129.014 28.2519 128.813 28.4602C128.612 28.6662 128.363 28.8272 128.067 28.9432C127.772 29.0568 127.439 29.1136 127.07 29.1136ZM134.254 25.8892V26.6705H131.242V25.8892H134.254ZM131.441 23.5455V29H130.603V23.5455H131.441ZM134.893 23.5455V29H134.055V23.5455H134.893ZM141.452 29.1136C140.94 29.1136 140.5 28.9929 140.131 28.7514C139.761 28.5099 139.477 28.1773 139.278 27.7536C139.08 27.3298 138.98 26.8456 138.98 26.3011C138.98 25.7472 139.082 25.2583 139.286 24.8345C139.491 24.4084 139.778 24.0758 140.145 23.8366C140.514 23.5952 140.945 23.4744 141.438 23.4744C141.821 23.4744 142.167 23.5455 142.474 23.6875C142.782 23.8295 143.034 24.0284 143.231 24.2841C143.427 24.5398 143.549 24.8381 143.597 25.179H142.759C142.695 24.9304 142.553 24.7102 142.332 24.5185C142.115 24.3243 141.821 24.2273 141.452 24.2273C141.125 24.2273 140.839 24.3125 140.592 24.483C140.348 24.651 140.158 24.889 140.021 25.1967C139.886 25.5021 139.818 25.8608 139.818 26.2727C139.818 26.6941 139.884 27.0611 140.017 27.3736C140.152 27.6861 140.341 27.9287 140.585 28.1016C140.831 28.2744 141.12 28.3608 141.452 28.3608C141.67 28.3608 141.867 28.3229 142.045 28.2472C142.222 28.1714 142.373 28.0625 142.496 27.9205C142.619 27.7784 142.706 27.608 142.759 27.4091H143.597C143.549 27.7311 143.432 28.0211 143.245 28.2791C143.06 28.5348 142.815 28.7384 142.51 28.8899C142.207 29.0391 141.854 29.1136 141.452 29.1136ZM146.427 29.1278C146.081 29.1278 145.768 29.0627 145.486 28.9325C145.204 28.8 144.98 28.6094 144.815 28.3608C144.649 28.1098 144.566 27.8068 144.566 27.4517C144.566 27.1392 144.628 26.8859 144.751 26.6918C144.874 26.4953 145.038 26.3414 145.244 26.2301C145.45 26.1188 145.678 26.036 145.926 25.9815C146.177 25.9247 146.429 25.8797 146.683 25.8466C147.014 25.804 147.283 25.772 147.489 25.7507C147.697 25.727 147.848 25.688 147.943 25.6335C148.04 25.5791 148.089 25.4844 148.089 25.3494V25.321C148.089 24.9706 147.993 24.6984 147.801 24.5043C147.612 24.3101 147.324 24.2131 146.938 24.2131C146.538 24.2131 146.224 24.3007 145.997 24.4759C145.77 24.651 145.61 24.8381 145.518 25.0369L144.722 24.7528C144.864 24.4214 145.054 24.1634 145.29 23.9787C145.53 23.7917 145.79 23.6615 146.072 23.5881C146.356 23.5123 146.635 23.4744 146.91 23.4744C147.085 23.4744 147.286 23.4957 147.513 23.5384C147.743 23.5786 147.964 23.6626 148.178 23.7905C148.393 23.9183 148.572 24.1113 148.714 24.3693C148.856 24.6274 148.927 24.973 148.927 25.4062V29H148.089V28.2614H148.046C147.989 28.3797 147.895 28.5064 147.762 28.6413C147.629 28.7763 147.453 28.8911 147.233 28.9858C147.013 29.0805 146.744 29.1278 146.427 29.1278ZM146.555 28.375C146.886 28.375 147.165 28.3099 147.393 28.1797C147.622 28.0495 147.795 27.8814 147.911 27.6754C148.03 27.4695 148.089 27.2528 148.089 27.0256V26.2585C148.053 26.3011 147.975 26.3402 147.854 26.3757C147.736 26.4089 147.599 26.4384 147.442 26.4645C147.289 26.4882 147.138 26.5095 146.991 26.5284C146.847 26.545 146.73 26.5592 146.64 26.571C146.422 26.5994 146.219 26.6456 146.029 26.7095C145.842 26.7711 145.691 26.8646 145.575 26.9901C145.461 27.1132 145.404 27.2812 145.404 27.4943C145.404 27.7855 145.512 28.0057 145.727 28.1548C145.945 28.3016 146.221 28.375 146.555 28.375ZM151.295 27.7642L153.922 23.5455H154.888V29H154.05V24.7812L151.437 29H150.456V23.5455H151.295V27.7642ZM153.368 21.7273H154.15C154.15 22.1108 154.017 22.4245 153.752 22.6683C153.487 22.9122 153.127 23.0341 152.672 23.0341C152.225 23.0341 151.869 22.9122 151.604 22.6683C151.341 22.4245 151.209 22.1108 151.209 21.7273H151.991C151.991 21.9119 152.041 22.0741 152.143 22.2138C152.247 22.3535 152.424 22.4233 152.672 22.4233C152.921 22.4233 153.099 22.3535 153.205 22.2138C153.314 22.0741 153.368 21.9119 153.368 21.7273ZM155.681 24.3267V23.5455H160.113V24.3267H158.323V29H157.485V24.3267H155.681ZM162.429 26.9545V26.9119C162.434 26.4598 162.481 26.0999 162.571 25.8324C162.661 25.5649 162.789 25.3482 162.955 25.1825C163.12 25.0168 163.319 24.8641 163.551 24.7244C163.691 24.6392 163.816 24.5386 163.928 24.4226C164.039 24.3042 164.127 24.1681 164.191 24.0142C164.257 23.8603 164.29 23.6899 164.29 23.5028C164.29 23.2708 164.235 23.0696 164.127 22.8991C164.018 22.7287 163.872 22.5973 163.69 22.505C163.508 22.4126 163.305 22.3665 163.083 22.3665C162.888 22.3665 162.701 22.4067 162.521 22.4872C162.342 22.5677 162.191 22.6944 162.07 22.8672C161.95 23.04 161.88 23.2661 161.861 23.5455H160.966C160.985 23.143 161.089 22.7985 161.279 22.5121C161.47 22.2256 161.722 22.0066 162.035 21.8551C162.35 21.7036 162.699 21.6278 163.083 21.6278C163.499 21.6278 163.861 21.7107 164.169 21.8764C164.479 22.0421 164.718 22.2694 164.887 22.5582C165.057 22.8471 165.142 23.1761 165.142 23.5455C165.142 23.8059 165.102 24.0414 165.021 24.2521C164.943 24.4628 164.83 24.651 164.681 24.8168C164.534 24.9825 164.356 25.1293 164.148 25.2571C163.94 25.3873 163.773 25.5246 163.647 25.669C163.522 25.8111 163.431 25.9804 163.374 26.1768C163.317 26.3733 163.286 26.6184 163.281 26.9119V26.9545H162.429ZM162.884 29.0568C162.709 29.0568 162.558 28.9941 162.433 28.8686C162.307 28.7431 162.244 28.5928 162.244 28.4176C162.244 28.2424 162.307 28.0921 162.433 27.9666C162.558 27.8411 162.709 27.7784 162.884 27.7784C163.059 27.7784 163.209 27.8411 163.335 27.9666C163.46 28.0921 163.523 28.2424 163.523 28.4176C163.523 28.5336 163.493 28.6402 163.434 28.7372C163.377 28.8343 163.3 28.9124 163.203 28.9716C163.109 29.0284 163.002 29.0568 162.884 29.0568Z" fill="white"/>
<defs>
<filter id="filter0_d_410_2219" x="29.2259" y="6.15344" width="139.225" height="16.9701" filterUnits="userSpaceOnUse" color-interpolation-filters="sRGB">
<feFlood flood-opacity="0" result="BackgroundImageFix"/>
<feColorMatrix in="SourceAlpha" type="matrix" values="0 0 0 0 0 0 0 0 0 0 0 0 0 0 0 0 0 0 127 0" result="hardAlpha"/>
<feOffset dy="4"/>
<feGaussianBlur stdDeviation="2"/>
<feComposite in2="hardAlpha" operator="out"/>
<feColorMatrix type="matrix" values="0 0 0 0 0 0 0 0 0 0 0 0 0 0 0 0 0 0 0.25 0"/>
<feBlend mode="normal" in2="BackgroundImageFix" result="effect1_dropShadow_410_2219"/>
<feBlend mode="normal" in="SourceGraphic" in2="effect1_dropShadow_410_2219" result="shape"/>
</filter>
</defs>
</svg>
