<svg width="252" height="46" viewBox="0 0 252 46" fill="none" xmlns="http://www.w3.org/2000/svg">
<path fill-rule="evenodd" clip-rule="evenodd" d="M22.6589 39.5951C32.2735 39.5951 40.0677 32.0659 40.0677 22.7782C40.0677 13.4905 32.2735 5.96137 22.6589 5.96137C13.0444 5.96137 5.25021 13.4905 5.25021 22.7782C5.25021 32.0659 13.0444 39.5951 22.6589 39.5951ZM22.6589 41.0187C33.0874 41.0187 41.5414 32.8522 41.5414 22.7782C41.5414 12.7043 33.0874 4.53772 22.6589 4.53772C12.2304 4.53772 3.77646 12.7043 3.77646 22.7782C3.77646 32.8522 12.2304 41.0187 22.6589 41.0187Z" fill="#CD5FF8"/>
<path fill-rule="evenodd" clip-rule="evenodd" d="M19.6637 5.21269L20.041 1.42365H25.5033L25.8729 5.26187C26.393 5.38329 26.9014 5.5335 27.3963 5.71068L26.9007 0.565149C26.8699 0.244897 26.5917 0 26.2587 0H19.2879C18.9558 0 18.6779 0.243793 18.6461 0.563205L18.1411 5.6342C18.6362 5.46627 19.1443 5.32517 19.6637 5.21269Z" fill="#CD5FF8"/>
<path fill-rule="evenodd" clip-rule="evenodd" d="M25.8737 40.2712L25.4963 44.0602H20.0341L19.6644 40.222C19.1444 40.1006 18.6359 39.9504 18.1411 39.7732L18.6366 44.9187C18.6675 45.239 18.9457 45.4839 19.2786 45.4839H26.2494C26.5816 45.4839 26.8594 45.2401 26.8912 44.9207L27.3962 39.8497C26.9011 40.0176 26.393 40.1587 25.8737 40.2712Z" fill="#CD5FF8"/>
<path fill-rule="evenodd" clip-rule="evenodd" d="M36.9444 11.3543L40.5299 9.77546L43.2611 14.3451L40.0049 16.5735C40.1561 17.0692 40.2756 17.5697 40.3642 18.0723L44.7294 15.0849C45.0011 14.899 45.0816 14.5438 44.9151 14.2653L41.4297 8.43363C41.2636 8.15574 40.9061 8.04522 40.6039 8.17831L35.8052 10.2913C36.2033 10.6215 36.5839 10.9761 36.9444 11.3543Z" fill="#CD5FF8"/>
<path fill-rule="evenodd" clip-rule="evenodd" d="M8.53947 34.1232L4.95391 35.7021L2.22278 31.1324L5.47894 28.9041C5.32776 28.4083 5.20822 27.9079 5.11962 27.4053L0.754407 30.3926C0.482721 30.5786 0.402268 30.9337 0.568745 31.2123L4.05414 37.0439C4.22023 37.3218 4.5777 37.4323 4.87995 37.2992L9.67862 35.1862C9.28054 34.856 8.89997 34.5015 8.53947 34.1232Z" fill="#CD5FF8"/>
<path fill-rule="evenodd" clip-rule="evenodd" d="M5.43447 16.5494L2.22624 14.3392L4.95738 9.76959L8.58319 11.3795C8.95207 11.0051 9.34095 10.6549 9.74722 10.3295L4.88645 8.17127C4.58392 8.03695 4.22526 8.14724 4.05879 8.42578L0.573398 14.2574C0.407308 14.5353 0.486962 14.8896 0.757412 15.0759L5.05109 18.0339C5.14808 17.5358 5.27564 17.0401 5.43447 16.5494Z" fill="#CD5FF8"/>
<path fill-rule="evenodd" clip-rule="evenodd" d="M40.0494 28.928L43.2576 31.1382L40.5265 35.7078L36.9007 34.098C36.5318 34.4723 36.1429 34.8225 35.7367 35.148L40.5974 37.3061C40.9 37.4405 41.2586 37.3302 41.4251 37.0516L44.9105 31.22C45.0766 30.9421 44.9969 30.5878 44.7265 30.4015L40.4328 27.4435C40.3358 27.9416 40.2082 28.4373 40.0494 28.928Z" fill="#CD5FF8"/>
<path fill-rule="evenodd" clip-rule="evenodd" d="M34.6333 22.7784C34.6333 29.1176 29.3134 34.2566 22.7511 34.2566C21.3101 34.2566 19.929 34.0088 18.651 33.5549C18.2974 33.4293 17.8953 33.5557 17.707 33.8708V33.8708C17.4871 34.2387 17.6444 34.7112 18.056 34.8605C19.5166 35.3904 21.0988 35.6802 22.7511 35.6802C30.1274 35.6802 36.107 29.9039 36.107 22.7784C36.107 15.6529 30.1274 9.87659 22.7511 9.87659C15.3748 9.87659 9.3952 15.6529 9.3952 22.7784C9.3952 26.4391 10.9734 29.7437 13.5085 32.0919C13.8429 32.4017 14.3817 32.3094 14.6134 31.9218V31.9218C14.7911 31.6245 14.7248 31.249 14.47 31.0097C12.2488 28.9242 10.869 26.007 10.869 22.7784C10.869 16.4392 16.1888 11.3002 22.7511 11.3002C29.3134 11.3002 34.6333 16.4392 34.6333 22.7784Z" fill="#CD5FF8"/>
<path fill-rule="evenodd" clip-rule="evenodd" d="M34.7254 22.7784C34.7254 29.1668 29.3643 34.3456 22.7511 34.3456C21.2991 34.3456 19.9072 34.0959 18.6192 33.6384C18.3047 33.5267 17.9511 33.6403 17.7867 33.9153C17.5933 34.239 17.7338 34.6485 18.0884 34.7772C19.5388 35.3034 21.1101 35.5912 22.7511 35.5912C30.0765 35.5912 36.0149 29.8547 36.0149 22.7784C36.0149 15.7021 30.0765 9.96556 22.7511 9.96556C15.4257 9.96556 9.48731 15.7021 9.48731 22.7784C9.48731 26.4139 11.0546 29.6956 13.5722 32.0277C13.8603 32.2945 14.3296 32.2187 14.5336 31.8774C14.6888 31.6176 14.6324 31.2864 14.4058 31.0735C12.1675 28.9719 10.7768 26.032 10.7768 22.7784C10.7768 16.39 16.1379 11.2113 22.7511 11.2113C29.3643 11.2113 34.7254 16.39 34.7254 22.7784ZM22.7511 34.2566C29.3134 34.2566 34.6333 29.1176 34.6333 22.7784C34.6333 16.4392 29.3134 11.3002 22.7511 11.3002C16.1888 11.3002 10.869 16.4392 10.869 22.7784C10.869 26.007 12.2488 28.9242 14.47 31.0097C14.7248 31.249 14.7911 31.6245 14.6134 31.9218C14.3817 32.3094 13.8429 32.4017 13.5085 32.0919C10.9734 29.7437 9.3952 26.4391 9.3952 22.7784C9.3952 15.6529 15.3748 9.87659 22.7511 9.87659C30.1274 9.87659 36.107 15.6529 36.107 22.7784C36.107 29.9039 30.1274 35.6802 22.7511 35.6802C21.0988 35.6802 19.5166 35.3904 18.056 34.8605C17.6444 34.7112 17.4871 34.2387 17.707 33.8708C17.8953 33.5557 18.2974 33.4293 18.651 33.5549C19.929 34.0088 21.3101 34.2566 22.7511 34.2566Z" fill="#CD5FF8"/>
<path fill-rule="evenodd" clip-rule="evenodd" d="M25.0739 18.8292C25.4255 19.0272 25.5444 19.4631 25.3394 19.8027L21.4196 26.2981C21.2146 26.6377 20.7634 26.7526 20.4119 26.5546C20.0603 26.3566 19.9414 25.9208 20.1464 25.5811L24.0662 19.0857C24.2712 18.7461 24.7223 18.6313 25.0739 18.8292Z" fill="#CD5FF8"/>
<path fill-rule="evenodd" clip-rule="evenodd" d="M18.3903 19.7226C18.6781 20.0006 18.6781 20.4513 18.3903 20.7293L15.8402 23.1928C15.5524 23.4707 15.0858 23.4707 14.798 23.1928C14.5103 22.9148 14.5103 22.4641 14.798 22.1861L17.3482 19.7226C17.636 19.4446 18.1026 19.4446 18.3903 19.7226Z" fill="#CD5FF8"/>
<path fill-rule="evenodd" clip-rule="evenodd" d="M14.8612 22.2751C15.149 21.9971 15.6156 21.9971 15.9033 22.2751L18.3132 24.603C18.601 24.881 18.601 25.3317 18.3132 25.6097C18.0254 25.8876 17.5589 25.8876 17.2711 25.6097L14.8612 23.2817C14.5735 23.0038 14.5735 22.553 14.8612 22.2751Z" fill="#CD5FF8"/>
<path fill-rule="evenodd" clip-rule="evenodd" d="M27.0197 25.6097C26.7319 25.3317 26.7319 24.881 27.0197 24.603L29.5699 22.1395C29.8577 21.8615 30.3242 21.8615 30.612 22.1395C30.8998 22.4175 30.8998 22.8682 30.612 23.1462L28.0618 25.6097C27.774 25.8876 27.3075 25.8876 27.0197 25.6097Z" fill="#CD5FF8"/>
<path fill-rule="evenodd" clip-rule="evenodd" d="M30.5488 23.0571C30.2611 23.3351 29.7945 23.3351 29.5067 23.0571L27.0969 20.7292C26.8091 20.4512 26.8091 20.0005 27.0969 19.7225C27.3846 19.4445 27.8512 19.4445 28.139 19.7225L30.5488 22.0504C30.8366 22.3284 30.8366 22.7791 30.5488 23.0571Z" fill="#CD5FF8"/>
<g filter="url(#filter0_d_410_2256)">
<path d="M53.723 17L51.2259 8.27273H53.2415L54.6861 14.3366H54.7585L56.3523 8.27273H58.0781L59.6676 14.3494H59.7443L61.1889 8.27273H63.2045L60.7074 17H58.9091L57.2472 11.294H57.179L55.5213 17H53.723ZM64.1921 17V8.27273H70.0728V9.79403H66.0373V11.8736H69.7702V13.3949H66.0373V15.4787H70.0898V17H64.1921ZM71.5398 17V8.27273H75.0341C75.6761 8.27273 76.2116 8.3679 76.6406 8.55824C77.0696 8.74858 77.392 9.01278 77.608 9.35085C77.8239 9.68608 77.9318 10.0724 77.9318 10.5099C77.9318 10.8509 77.8636 11.1506 77.7273 11.4091C77.5909 11.6648 77.4034 11.875 77.1648 12.0398C76.929 12.2017 76.6591 12.3168 76.3551 12.3849V12.4702C76.6875 12.4844 76.9986 12.5781 77.2884 12.7514C77.581 12.9247 77.8182 13.1676 78 13.4801C78.1818 13.7898 78.2727 14.1591 78.2727 14.5881C78.2727 15.0511 78.1577 15.4645 77.9276 15.8281C77.7003 16.1889 77.3636 16.4744 76.9176 16.6847C76.4716 16.8949 75.9219 17 75.2685 17H71.5398ZM73.3849 15.4915H74.8892C75.4034 15.4915 75.7784 15.3935 76.0142 15.1974C76.25 14.9986 76.3679 14.7344 76.3679 14.4048C76.3679 14.1634 76.3097 13.9503 76.1932 13.7656C76.0767 13.581 75.9105 13.4361 75.6946 13.331C75.4815 13.2259 75.2273 13.1733 74.9318 13.1733H73.3849V15.4915ZM73.3849 11.9247H74.7528C75.0057 11.9247 75.2301 11.8807 75.4261 11.7926C75.625 11.7017 75.7813 11.5739 75.8949 11.4091C76.0114 11.2443 76.0696 11.0469 76.0696 10.8168C76.0696 10.5014 75.9574 10.2472 75.733 10.054C75.5114 9.8608 75.196 9.7642 74.7869 9.7642H73.3849V11.9247ZM83.5174 11.9162V13.3565H79.5373V11.9162H83.5174ZM85.0984 17V8.27273H90.8768V9.79403H86.9435V11.8736H90.4933V13.3949H86.9435V17H85.0984ZM92.1179 17V8.27273H95.5611C96.2202 8.27273 96.7827 8.39062 97.2486 8.62642C97.7173 8.85937 98.0739 9.19034 98.3182 9.61932C98.5653 10.0455 98.6889 10.5469 98.6889 11.1236C98.6889 11.7031 98.5639 12.2017 98.3139 12.6193C98.0639 13.0341 97.7017 13.3523 97.2273 13.5739C96.7557 13.7955 96.1847 13.9062 95.5142 13.9062H93.2088V12.4233H95.2159C95.5682 12.4233 95.8608 12.375 96.0938 12.2784C96.3267 12.1818 96.5 12.0369 96.6136 11.8438C96.7301 11.6506 96.7884 11.4105 96.7884 11.1236C96.7884 10.8338 96.7301 10.5895 96.6136 10.3906C96.5 10.1918 96.3253 10.0412 96.0895 9.93892C95.8565 9.83381 95.5625 9.78125 95.2074 9.78125H93.9631V17H92.1179ZM96.831 13.0284L99 17H96.9631L94.8409 13.0284H96.831ZM99.9929 17V8.27273H105.874V9.79403H101.838V11.8736H105.571V13.3949H101.838V15.4787H105.891V17H99.9929ZM107.341 17V8.27273H113.221V9.79403H109.186V11.8736H112.919V13.3949H109.186V15.4787H113.238V17H107.341ZM114.688 17V8.27273H116.533V15.4787H120.275V17H114.688ZM123.224 17H121.246L124.259 8.27273H126.637L129.646 17H127.668L125.482 10.267H125.414L123.224 17ZM123.1 13.5696H127.771V15.0099H123.1V13.5696ZM137.996 8.27273V17H136.402L132.605 11.5071H132.541V17H130.696V8.27273H132.315L136.082 13.7614H136.159V8.27273H137.996ZM147.221 11.3281H145.354C145.32 11.0866 145.25 10.8722 145.145 10.6847C145.04 10.4943 144.905 10.3324 144.74 10.1989C144.576 10.0653 144.385 9.96307 144.169 9.89205C143.956 9.82102 143.725 9.78551 143.475 9.78551C143.023 9.78551 142.63 9.89773 142.294 10.1222C141.959 10.3437 141.699 10.6676 141.515 11.0938C141.33 11.517 141.238 12.0312 141.238 12.6364C141.238 13.2585 141.33 13.7812 141.515 14.2045C141.702 14.6278 141.963 14.9474 142.299 15.1634C142.634 15.3793 143.022 15.4872 143.462 15.4872C143.709 15.4872 143.938 15.4545 144.148 15.3892C144.361 15.3239 144.55 15.2287 144.715 15.1037C144.88 14.9759 145.016 14.821 145.124 14.6392C145.235 14.4574 145.311 14.25 145.354 14.017L147.221 14.0256C147.172 14.4261 147.051 14.8125 146.858 15.1847C146.668 15.554 146.411 15.8849 146.087 16.1776C145.766 16.4673 145.382 16.6974 144.936 16.8679C144.493 17.0355 143.992 17.1193 143.432 17.1193C142.654 17.1193 141.958 16.9432 141.344 16.5909C140.733 16.2386 140.25 15.7287 139.895 15.0611C139.543 14.3935 139.367 13.5852 139.367 12.6364C139.367 11.6847 139.546 10.875 139.904 10.2074C140.262 9.53977 140.748 9.03125 141.361 8.68182C141.975 8.32955 142.665 8.15341 143.432 8.15341C143.938 8.15341 144.407 8.22443 144.838 8.36648C145.273 8.50852 145.658 8.71591 145.993 8.98864C146.328 9.25852 146.601 9.58949 146.811 9.98153C147.025 10.3736 147.161 10.8224 147.221 11.3281ZM148.544 17V8.27273H154.424V9.79403H150.389V11.8736H154.122V13.3949H150.389V15.4787H154.441V17H148.544ZM155.891 17V8.27273H159.335C159.994 8.27273 160.556 8.39062 161.022 8.62642C161.491 8.85937 161.847 9.19034 162.092 9.61932C162.339 10.0455 162.462 10.5469 162.462 11.1236C162.462 11.7031 162.337 12.2017 162.087 12.6193C161.837 13.0341 161.475 13.3523 161.001 13.5739C160.529 13.7955 159.958 13.9062 159.288 13.9062H156.982V12.4233H158.989C159.342 12.4233 159.634 12.375 159.867 12.2784C160.1 12.1818 160.273 12.0369 160.387 11.8438C160.504 11.6506 160.562 11.4105 160.562 11.1236C160.562 10.8338 160.504 10.5895 160.387 10.3906C160.273 10.1918 160.099 10.0412 159.863 9.93892C159.63 9.83381 159.336 9.78125 158.981 9.78125H157.737V17H155.891ZM160.604 13.0284L162.773 17H160.737L158.614 13.0284H160.604ZM164.793 17.1108C164.512 17.1108 164.271 17.0114 164.069 16.8125C163.87 16.6108 163.771 16.3693 163.771 16.0881C163.771 15.8097 163.87 15.571 164.069 15.3722C164.271 15.1733 164.512 15.0739 164.793 15.0739C165.066 15.0739 165.305 15.1733 165.509 15.3722C165.714 15.571 165.816 15.8097 165.816 16.0881C165.816 16.2756 165.768 16.4474 165.671 16.6037C165.577 16.7571 165.454 16.8807 165.3 16.9744C165.147 17.0653 164.978 17.1108 164.793 17.1108ZM167.341 17V8.27273H170.784C171.443 8.27273 172.005 8.39062 172.471 8.62642C172.94 8.85937 173.297 9.19034 173.541 9.61932C173.788 10.0455 173.912 10.5469 173.912 11.1236C173.912 11.7031 173.787 12.2017 173.537 12.6193C173.287 13.0341 172.924 13.3523 172.45 13.5739C171.978 13.7955 171.407 13.9062 170.737 13.9062H168.431V12.4233H170.439C170.791 12.4233 171.083 12.375 171.316 12.2784C171.549 12.1818 171.723 12.0369 171.836 11.8438C171.953 11.6506 172.011 11.4105 172.011 11.1236C172.011 10.8338 171.953 10.5895 171.836 10.3906C171.723 10.1918 171.548 10.0412 171.312 9.93892C171.079 9.83381 170.785 9.78125 170.43 9.78125H169.186V17H167.341ZM172.054 13.0284L174.223 17H172.186L170.064 13.0284H172.054ZM180.606 8.27273H182.451V13.9403C182.451 14.5767 182.299 15.1335 181.995 15.6108C181.694 16.0881 181.272 16.4602 180.73 16.7273C180.187 16.9915 179.555 17.1236 178.833 17.1236C178.109 17.1236 177.475 16.9915 176.933 16.7273C176.39 16.4602 175.968 16.0881 175.667 15.6108C175.366 15.1335 175.216 14.5767 175.216 13.9403V8.27273H177.061V13.7827C177.061 14.1151 177.133 14.4105 177.278 14.669C177.426 14.9276 177.633 15.1307 177.9 15.2784C178.167 15.4261 178.478 15.5 178.833 15.5C179.191 15.5 179.502 15.4261 179.767 15.2784C180.034 15.1307 180.24 14.9276 180.385 14.669C180.532 14.4105 180.606 14.1151 180.606 13.7827V8.27273Z" fill="#C770F0"/>
</g>
<path d="M122.881 32V24.7273H123.761V27.9659H127.639V24.7273H128.52V32H127.639V28.7472H123.761V32H122.881ZM130.709 34.0455C130.567 34.0455 130.44 34.0336 130.329 34.0099C130.218 33.9886 130.141 33.9673 130.098 33.946L130.311 33.2074C130.515 33.2595 130.695 33.2784 130.851 33.2642C131.007 33.25 131.146 33.1802 131.267 33.0547C131.39 32.9316 131.502 32.7315 131.604 32.4545L131.76 32.0284L129.743 26.5455H130.652L132.158 30.892H132.215L133.721 26.5455H134.63L132.314 32.7955C132.21 33.0772 132.081 33.3104 131.927 33.495C131.773 33.6821 131.595 33.8205 131.391 33.9105C131.19 34.0005 130.962 34.0455 130.709 34.0455ZM135.395 32L137.611 29.2301L135.423 26.5455H136.418L138.236 28.875H138.69V26.5455H139.528V28.875H139.969L141.787 26.5455H142.781L140.608 29.2301L142.81 32H141.801L139.955 29.6562H139.528V32H138.69V29.6562H138.264L136.403 32H135.395ZM146.07 32.1136C145.544 32.1136 145.091 31.9976 144.71 31.7656C144.331 31.5312 144.038 31.2045 143.832 30.7855C143.629 30.3641 143.527 29.8741 143.527 29.3153C143.527 28.7566 143.629 28.2642 143.832 27.8381C144.038 27.4096 144.325 27.0758 144.692 26.8366C145.061 26.5952 145.492 26.4744 145.984 26.4744C146.268 26.4744 146.549 26.5218 146.826 26.6165C147.103 26.7112 147.355 26.8651 147.582 27.0781C147.81 27.2888 147.991 27.5682 148.126 27.9162C148.261 28.2642 148.328 28.6927 148.328 29.2017V29.5568H144.124V28.8324H147.476C147.476 28.5246 147.414 28.25 147.291 28.0085C147.17 27.767 146.998 27.5765 146.773 27.4368C146.55 27.2971 146.287 27.2273 145.984 27.2273C145.651 27.2273 145.362 27.3101 145.118 27.4759C144.876 27.6392 144.691 27.8523 144.56 28.1151C144.43 28.3778 144.365 28.6596 144.365 28.9602V29.4432C144.365 29.8551 144.436 30.2043 144.578 30.4908C144.723 30.7749 144.923 30.9915 145.178 31.1406C145.434 31.2874 145.731 31.3608 146.07 31.3608C146.29 31.3608 146.489 31.33 146.666 31.2685C146.846 31.2045 147.001 31.1098 147.131 30.9844C147.262 30.8565 147.362 30.6979 147.433 30.5085L148.243 30.7358C148.158 31.0104 148.014 31.2519 147.813 31.4602C147.612 31.6662 147.363 31.8272 147.067 31.9432C146.772 32.0568 146.439 32.1136 146.07 32.1136ZM153.254 28.8892V29.6705H150.242V28.8892H153.254ZM150.441 26.5455V32H149.603V26.5455H150.441ZM153.893 26.5455V32H153.055V26.5455H153.893ZM160.452 32.1136C159.94 32.1136 159.5 31.9929 159.131 31.7514C158.761 31.5099 158.477 31.1773 158.278 30.7536C158.08 30.3298 157.98 29.8456 157.98 29.3011C157.98 28.7472 158.082 28.2583 158.286 27.8345C158.491 27.4084 158.778 27.0758 159.145 26.8366C159.514 26.5952 159.945 26.4744 160.438 26.4744C160.821 26.4744 161.167 26.5455 161.474 26.6875C161.782 26.8295 162.034 27.0284 162.231 27.2841C162.427 27.5398 162.549 27.8381 162.597 28.179H161.759C161.695 27.9304 161.553 27.7102 161.332 27.5185C161.115 27.3243 160.821 27.2273 160.452 27.2273C160.125 27.2273 159.839 27.3125 159.592 27.483C159.348 27.651 159.158 27.889 159.021 28.1967C158.886 28.5021 158.818 28.8608 158.818 29.2727C158.818 29.6941 158.884 30.0611 159.017 30.3736C159.152 30.6861 159.341 30.9287 159.585 31.1016C159.831 31.2744 160.12 31.3608 160.452 31.3608C160.67 31.3608 160.867 31.3229 161.045 31.2472C161.222 31.1714 161.373 31.0625 161.496 30.9205C161.619 30.7784 161.706 30.608 161.759 30.4091H162.597C162.549 30.7311 162.432 31.0211 162.245 31.2791C162.06 31.5348 161.815 31.7384 161.51 31.8899C161.207 32.0391 160.854 32.1136 160.452 32.1136ZM165.427 32.1278C165.081 32.1278 164.768 32.0627 164.486 31.9325C164.204 31.8 163.98 31.6094 163.815 31.3608C163.649 31.1098 163.566 30.8068 163.566 30.4517C163.566 30.1392 163.628 29.8859 163.751 29.6918C163.874 29.4953 164.038 29.3414 164.244 29.2301C164.45 29.1188 164.678 29.036 164.926 28.9815C165.177 28.9247 165.429 28.8797 165.683 28.8466C166.014 28.804 166.283 28.772 166.489 28.7507C166.697 28.727 166.848 28.688 166.943 28.6335C167.04 28.5791 167.089 28.4844 167.089 28.3494V28.321C167.089 27.9706 166.993 27.6984 166.801 27.5043C166.612 27.3101 166.324 27.2131 165.938 27.2131C165.538 27.2131 165.224 27.3007 164.997 27.4759C164.77 27.651 164.61 27.8381 164.518 28.0369L163.722 27.7528C163.864 27.4214 164.054 27.1634 164.29 26.9787C164.53 26.7917 164.79 26.6615 165.072 26.5881C165.356 26.5123 165.635 26.4744 165.91 26.4744C166.085 26.4744 166.286 26.4957 166.513 26.5384C166.743 26.5786 166.964 26.6626 167.178 26.7905C167.393 26.9183 167.572 27.1113 167.714 27.3693C167.856 27.6274 167.927 27.973 167.927 28.4062V32H167.089V31.2614H167.046C166.989 31.3797 166.895 31.5064 166.762 31.6413C166.629 31.7763 166.453 31.8911 166.233 31.9858C166.013 32.0805 165.744 32.1278 165.427 32.1278ZM165.555 31.375C165.886 31.375 166.165 31.3099 166.393 31.1797C166.622 31.0495 166.795 30.8814 166.911 30.6754C167.03 30.4695 167.089 30.2528 167.089 30.0256V29.2585C167.053 29.3011 166.975 29.3402 166.854 29.3757C166.736 29.4089 166.599 29.4384 166.442 29.4645C166.289 29.4882 166.138 29.5095 165.991 29.5284C165.847 29.545 165.73 29.5592 165.64 29.571C165.422 29.5994 165.219 29.6456 165.029 29.7095C164.842 29.7711 164.691 29.8646 164.575 29.9901C164.461 30.1132 164.404 30.2812 164.404 30.4943C164.404 30.7855 164.512 31.0057 164.727 31.1548C164.945 31.3016 165.221 31.375 165.555 31.375ZM170.295 30.7642L172.922 26.5455H173.888V32H173.05V27.7812L170.437 32H169.456V26.5455H170.295V30.7642ZM172.368 24.7273H173.15C173.15 25.1108 173.017 25.4245 172.752 25.6683C172.487 25.9122 172.127 26.0341 171.672 26.0341C171.225 26.0341 170.869 25.9122 170.604 25.6683C170.341 25.4245 170.209 25.1108 170.209 24.7273H170.991C170.991 24.9119 171.041 25.0741 171.143 25.2138C171.247 25.3535 171.424 25.4233 171.672 25.4233C171.921 25.4233 172.099 25.3535 172.205 25.2138C172.314 25.0741 172.368 24.9119 172.368 24.7273ZM174.681 27.3267V26.5455H179.113V27.3267H177.323V32H176.485V27.3267H174.681ZM181.429 29.9545V29.9119C181.434 29.4598 181.481 29.0999 181.571 28.8324C181.661 28.5649 181.789 28.3482 181.955 28.1825C182.12 28.0168 182.319 27.8641 182.551 27.7244C182.691 27.6392 182.816 27.5386 182.928 27.4226C183.039 27.3042 183.127 27.1681 183.191 27.0142C183.257 26.8603 183.29 26.6899 183.29 26.5028C183.29 26.2708 183.235 26.0696 183.127 25.8991C183.018 25.7287 182.872 25.5973 182.69 25.505C182.508 25.4126 182.305 25.3665 182.083 25.3665C181.888 25.3665 181.701 25.4067 181.521 25.4872C181.342 25.5677 181.191 25.6944 181.07 25.8672C180.95 26.04 180.88 26.2661 180.861 26.5455H179.966C179.985 26.143 180.089 25.7985 180.279 25.5121C180.47 25.2256 180.722 25.0066 181.035 24.8551C181.35 24.7036 181.699 24.6278 182.083 24.6278C182.499 24.6278 182.861 24.7107 183.169 24.8764C183.479 25.0421 183.718 25.2694 183.887 25.5582C184.057 25.8471 184.142 26.1761 184.142 26.5455C184.142 26.8059 184.102 27.0414 184.021 27.2521C183.943 27.4628 183.83 27.651 183.681 27.8168C183.534 27.9825 183.356 28.1293 183.148 28.2571C182.94 28.3873 182.773 28.5246 182.647 28.669C182.522 28.8111 182.431 28.9804 182.374 29.1768C182.317 29.3733 182.286 29.6184 182.281 29.9119V29.9545H181.429ZM181.884 32.0568C181.709 32.0568 181.558 31.9941 181.433 31.8686C181.307 31.7431 181.244 31.5928 181.244 31.4176C181.244 31.2424 181.307 31.0921 181.433 30.9666C181.558 30.8411 181.709 30.7784 181.884 30.7784C182.059 30.7784 182.209 30.8411 182.335 30.9666C182.46 31.0921 182.523 31.2424 182.523 31.4176C182.523 31.5336 182.493 31.6402 182.434 31.7372C182.377 31.8343 182.3 31.9124 182.203 31.9716C182.109 32.0284 182.002 32.0568 181.884 32.0568Z" fill="white"/>
<defs>
<filter id="filter0_d_410_2256" x="47.2259" y="8.15344" width="139.225" height="16.9701" filterUnits="userSpaceOnUse" color-interpolation-filters="sRGB">
<feFlood flood-opacity="0" result="BackgroundImageFix"/>
<feColorMatrix in="SourceAlpha" type="matrix" values="0 0 0 0 0 0 0 0 0 0 0 0 0 0 0 0 0 0 127 0" result="hardAlpha"/>
<feOffset dy="4"/>
<feGaussianBlur stdDeviation="2"/>
<feComposite in2="hardAlpha" operator="out"/>
<feColorMatrix type="matrix" values="0 0 0 0 0 0 0 0 0 0 0 0 0 0 0 0 0 0 0.25 0"/>
<feBlend mode="normal" in2="BackgroundImageFix" result="effect1_dropShadow_410_2256"/>
<feBlend mode="normal" in="SourceGraphic" in2="effect1_dropShadow_410_2256" result="shape"/>
</filter>
</defs>
</svg>
