<svg width="50" height="50" viewBox="0 0 30 30" fill="none" xmlns="http://www.w3.org/2000/svg">
<path fill-rule="evenodd" clip-rule="evenodd" d="M14.9453 26.116C21.2868 26.116 26.4276 21.1499 26.4276 15.024C26.4276 8.89809 21.2868 3.93204 14.9453 3.93204C8.60375 3.93204 3.46293 8.89809 3.46293 15.024C3.46293 21.1499 8.60375 26.116 14.9453 26.116ZM14.9453 27.055C21.8237 27.055 27.3997 21.6685 27.3997 15.024C27.3997 8.37949 21.8237 2.99304 14.9453 2.99304C8.0669 2.99304 2.49088 8.37949 2.49088 15.024C2.49088 21.6685 8.0669 27.055 14.9453 27.055Z" fill="#CD5FF8"/>
<path fill-rule="evenodd" clip-rule="evenodd" d="M12.9696 3.43816L13.2185 0.939002H16.8213L17.0651 3.4706C17.4081 3.55068 17.7435 3.64976 18.0699 3.76662L17.743 0.372758C17.7227 0.161528 17.5392 0 17.3196 0H12.7218C12.5027 0 12.3195 0.1608 12.2985 0.371476L11.9654 3.71617C12.292 3.60541 12.6271 3.51234 12.9696 3.43816Z" fill="#CD5FF8"/>
<path fill-rule="evenodd" clip-rule="evenodd" d="M17.0656 26.5618L16.8168 29.061H13.214L12.9702 26.5294C12.6271 26.4493 12.2918 26.3502 11.9654 26.2334L12.2923 29.6272C12.3126 29.8385 12.4961 30 12.7157 30H17.3135C17.5326 30 17.7158 29.8392 17.7368 29.6285L18.0699 26.2838C17.7433 26.3946 17.4082 26.4877 17.0656 26.5618Z" fill="#CD5FF8"/>
<path fill-rule="evenodd" clip-rule="evenodd" d="M24.3676 7.489L26.7325 6.44763L28.5339 9.46165L26.3862 10.9314C26.4859 11.2584 26.5648 11.5885 26.6232 11.92L29.5024 9.94961C29.6816 9.82698 29.7347 9.59271 29.6249 9.40899L27.326 5.5626C27.2164 5.3793 26.9807 5.30641 26.7813 5.3942L23.6162 6.7879C23.8788 7.00569 24.1298 7.23954 24.3676 7.489Z" fill="#CD5FF8"/>
<path fill-rule="evenodd" clip-rule="evenodd" d="M5.63243 22.5068L3.26749 23.5482L1.4661 20.5342L3.61378 19.0644C3.51407 18.7374 3.43522 18.4074 3.37679 18.0759L0.4976 20.0462C0.318403 20.1689 0.265339 20.4031 0.375143 20.5869L2.67402 24.4333C2.78357 24.6165 3.01934 24.6894 3.21871 24.6017L6.38379 23.208C6.12122 22.9902 5.87021 22.7563 5.63243 22.5068Z" fill="#CD5FF8"/>
<path fill-rule="evenodd" clip-rule="evenodd" d="M3.58444 10.9156L1.46837 9.4578L3.26976 6.44379L5.66126 7.50561C5.90456 7.25869 6.16105 7.02769 6.42902 6.81306L3.22297 5.38957C3.02343 5.30098 2.78688 5.37372 2.67707 5.55744L0.378199 9.40383C0.26865 9.58713 0.321187 9.82082 0.49957 9.94371L3.33157 11.8947C3.39554 11.5662 3.47968 11.2392 3.58444 10.9156Z" fill="#CD5FF8"/>
<path fill-rule="evenodd" clip-rule="evenodd" d="M26.4156 19.0801L28.5316 20.5379L26.7302 23.5519L24.3387 22.4901C24.0954 22.737 23.8389 22.968 23.571 23.1827L26.777 24.6062C26.9766 24.6947 27.2131 24.622 27.3229 24.4383L29.6218 20.5919C29.7314 20.4086 29.6788 20.1749 29.5004 20.052L26.6684 18.101C26.6045 18.4296 26.5203 18.7565 26.4156 19.0801Z" fill="#CD5FF8"/>
<path fill-rule="evenodd" clip-rule="evenodd" d="M22.8432 15.024C22.8432 19.2052 19.3344 22.5947 15.0061 22.5947C14.0556 22.5947 13.1447 22.4313 12.3017 22.1319C12.0685 22.0491 11.8033 22.1324 11.6791 22.3403V22.3403C11.5341 22.5829 11.6378 22.8945 11.9093 22.993C12.8727 23.3425 13.9163 23.5337 15.0061 23.5337C19.8712 23.5337 23.8153 19.7238 23.8153 15.024C23.8153 10.3242 19.8712 6.51428 15.0061 6.51428C10.1409 6.51428 6.19684 10.3242 6.19684 15.024C6.19684 17.4385 7.23781 19.6181 8.90985 21.1669C9.13041 21.3712 9.48583 21.3104 9.63861 21.0548V21.0548C9.75582 20.8587 9.71211 20.611 9.54402 20.4532C8.07902 19.0776 7.16889 17.1535 7.16889 15.024C7.16889 10.8428 10.6777 7.45328 15.0061 7.45328C19.3344 7.45328 22.8432 10.8428 22.8432 15.024Z" fill="#CD5FF8"/>
<path fill-rule="evenodd" clip-rule="evenodd" d="M22.904 15.024C22.904 19.2376 19.3679 22.6534 15.0061 22.6534C14.0483 22.6534 13.1303 22.4887 12.2808 22.187C12.0733 22.1133 11.8401 22.1882 11.7317 22.3696C11.6041 22.5831 11.6967 22.8532 11.9307 22.9381C12.8873 23.2852 13.9237 23.475 15.0061 23.475C19.8377 23.475 23.7545 19.6914 23.7545 15.024C23.7545 10.3566 19.8377 6.57297 15.0061 6.57297C10.1744 6.57297 6.25759 10.3566 6.25759 15.024C6.25759 17.4218 7.29131 19.5864 8.9519 21.1246C9.14191 21.3006 9.45145 21.2506 9.586 21.0254C9.68838 20.8541 9.65116 20.6356 9.50167 20.4953C8.02539 19.1091 7.10814 17.17 7.10814 15.024C7.10814 10.8104 10.6442 7.3946 15.0061 7.3946C19.3679 7.3946 22.904 10.8104 22.904 15.024ZM15.0061 22.5947C19.3344 22.5947 22.8432 19.2052 22.8432 15.024C22.8432 10.8428 19.3344 7.45328 15.0061 7.45328C10.6777 7.45328 7.16889 10.8428 7.16889 15.024C7.16889 17.1535 8.07902 19.0776 9.54402 20.4532C9.71211 20.611 9.75582 20.8587 9.63861 21.0548C9.48583 21.3104 9.13041 21.3712 8.90985 21.1669C7.23781 19.6181 6.19684 17.4385 6.19684 15.024C6.19684 10.3242 10.1409 6.51428 15.0061 6.51428C19.8712 6.51428 23.8153 10.3242 23.8153 15.024C23.8153 19.7238 19.8712 23.5337 15.0061 23.5337C13.9163 23.5337 12.8727 23.3425 11.9093 22.993C11.6378 22.8945 11.5341 22.5829 11.6791 22.3403C11.8033 22.1324 12.0685 22.0491 12.3017 22.1319C13.1447 22.4313 14.0556 22.5947 15.0061 22.5947Z" fill="#CD5FF8"/>
<path fill-rule="evenodd" clip-rule="evenodd" d="M16.5381 12.4193C16.77 12.5499 16.8484 12.8374 16.7132 13.0614L14.1278 17.3456C13.9926 17.5696 13.695 17.6453 13.4632 17.5147C13.2313 17.3841 13.1529 17.0967 13.288 16.8727L15.8735 12.5885C16.0086 12.3645 16.3062 12.2887 16.5381 12.4193Z" fill="#CD5FF8"/>
<path fill-rule="evenodd" clip-rule="evenodd" d="M12.1298 13.0085C12.3196 13.1918 12.3196 13.4891 12.1298 13.6724L10.4477 15.2973C10.2579 15.4806 9.95021 15.4806 9.7604 15.2973C9.5706 15.1139 9.5706 14.8167 9.7604 14.6333L11.4424 13.0085C11.6322 12.8251 11.94 12.8251 12.1298 13.0085Z" fill="#CD5FF8"/>
<path fill-rule="evenodd" clip-rule="evenodd" d="M9.80211 14.6921C9.99192 14.5087 10.2996 14.5087 10.4895 14.6921L12.0789 16.2275C12.2687 16.4109 12.2687 16.7082 12.0789 16.8915C11.8891 17.0749 11.5814 17.0749 11.3916 16.8915L9.80211 15.3561C9.61231 15.1727 9.61231 14.8754 9.80211 14.6921Z" fill="#CD5FF8"/>
<path fill-rule="evenodd" clip-rule="evenodd" d="M17.8215 16.8914C17.6317 16.7081 17.6317 16.4108 17.8215 16.2275L19.5035 14.6026C19.6934 14.4193 20.0011 14.4193 20.1909 14.6026C20.3807 14.786 20.3807 15.0832 20.1909 15.2666L18.5089 16.8914C18.3191 17.0748 18.0113 17.0748 17.8215 16.8914Z" fill="#CD5FF8"/>
<path fill-rule="evenodd" clip-rule="evenodd" d="M20.1492 15.2079C19.9594 15.3913 19.6517 15.3913 19.4619 15.2079L17.8724 13.6725C17.6826 13.4891 17.6826 13.1919 17.8724 13.0085C18.0622 12.8252 18.3699 12.8252 18.5597 13.0085L20.1492 14.544C20.339 14.7273 20.339 15.0246 20.1492 15.2079Z" fill="#CD5FF8"/>
</svg>
